<svg xmlns="http://www.w3.org/2000/svg" width="1004" height="1008"><path fill="#FFF" fill-rule="evenodd" d="M361.972 300.25c-39.907-20.66-78.694-12.526-113.275 13.735-18.125 13.768-34.51 18.939-57.184 15.01-59.716-10.34-119.677-6.63-179.165 4.827-4.152.801-8.245 1.924-12.348 3.7 61.917-1.825 122.96 4.538 182.28 22.932 159.464 49.432 272.387 151.642 321.212 322.68 10.168 35.61 12.081 73.896 17.12 111.048 1.488 10.967-1.24 23.504 16.374 22.616L496.008 1008c22.696-32.101 37.94-67.875 48.19-105.403 10.315-37.79 16.929-76.7 25.304-115.781 8.054 12.03 15.586 24.67 24.472 36.16 8.62 11.142 18.625 21.09 31.005 29.802-2.016-5.824-5.022-11.485-5.891-17.489-5.016-34.586-11.919-69.117-13.674-103.926-2.956-58.537.016-117.536-19.516-174.89 53.934 3.743 106.085 7.36 158.237 10.978 2.402.267 6.016 1.351 6.288-.213-34.114-41.723-83.298-71.89-133.78-87.984C804.665 443.077 933.842 332.259 1004 145.79c-81.76 104.313-197.524 123.67-318.951 142.364C741.053 197.522 757.71 101.954 744.722 0c-20.228 99.36-90.575 151.337-167.003 197.86-34.195 20.818-69.787 39.893-101.194 64.737-24.956 19.74-44.521 47.046-66.385 70.893-14.842-10.412-30.456-24.065-48.168-33.24z" opacity=".4"/></svg>