<?xml version="1.0" encoding="utf-8"?><svg xmlns="http://www.w3.org/2000/svg" xmlns:xlink="http://www.w3.org/1999/xlink"><symbol viewBox="0 0 18 12" id="icon-arrow-right" xmlns="http://www.w3.org/2000/svg"><defs><path id="aaa" d="M19 10H5.83l2.876-2.884a.997.997 0 1 0-1.411-1.411L2 11l5.295 5.295a.998.998 0 0 0 1.411-1.411L5.83 12H19a1 1 0 0 0 0-2z"/></defs><use transform="matrix(-1 0 0 1 20 -5)" xlink:href="#aaa"/></symbol><symbol viewBox="0 0 16 16" id="icon-assist" xmlns="http://www.w3.org/2000/svg"><defs><path id="aba" d="M12.555 6.556a1.556 1.556 0 1 1-3.11 0 1.556 1.556 0 0 1 3.11 0zm2 0a3.555 3.555 0 1 1-7.11 0 3.555 3.555 0 0 1 7.11 0zm-1.507 6.97A5.1 5.1 0 0 1 16.778 17H5.222a5.1 5.1 0 0 1 3.729-3.475l.154-.035a8.422 8.422 0 0 1 3.788 0l.154.035zM8.656 11.54l-.154.035A7.098 7.098 0 0 0 3 18.493c0 .28.227.507.507.507h14.986c.28 0 .507-.227.507-.507a7.098 7.098 0 0 0-5.502-6.917l-.154-.035a10.424 10.424 0 0 0-4.688 0z"/></defs><use fill-rule="evenodd" transform="translate(-3 -3)" xlink:href="#aba"/></symbol><symbol viewBox="0 0 18 18" id="icon-calendar" xmlns="http://www.w3.org/2000/svg"><defs><path id="aca" d="M9 2a1 1 0 0 1 1 1h2a1 1 0 0 1 2 0h5a1 1 0 0 1 1 1v15a1 1 0 0 1-1 1H3a1 1 0 0 1-1-1V4a1 1 0 0 1 1-1h5a1 1 0 0 1 1-1zm3 3a1 1 0 0 0 2 0h4v13H4V5h4a1 1 0 0 0 2 0h2zm-4 9a1 1 0 1 1-2 0 1 1 0 0 1 2 0zm3 1a1 1 0 1 0 0-2 1 1 0 0 0 0 2zm5-1a1 1 0 1 1-2 0 1 1 0 0 1 2 0zm-9-3a1 1 0 1 0 0-2 1 1 0 0 0 0 2zm5-1a1 1 0 1 1-2 0 1 1 0 0 1 2 0zm3 1a1 1 0 1 0 0-2 1 1 0 0 0 0 2z"/></defs><use fill="#000" xlink:href="#aca" fill-rule="evenodd" transform="translate(-2 -2)"/></symbol><symbol viewBox="0 0 12 12" id="icon-cancel" xmlns="http://www.w3.org/2000/svg"><defs><path id="ada" d="M16.735 6.545a.904.904 0 1 0-1.28-1.28L11 9.72 6.545 5.265a.904.904 0 1 0-1.28 1.28L9.72 11l-4.455 4.455a.904.904 0 1 0 1.28 1.28L11 12.28l4.455 4.455a.904.904 0 1 0 1.28-1.28L12.28 11l4.455-4.455z"/></defs><use fill-rule="evenodd" transform="translate(-5 -5)" xlink:href="#ada"/></symbol><symbol viewBox="0 0 14 10" id="icon-check" xmlns="http://www.w3.org/2000/svg"><defs><path id="aea" d="M16.306 6.28a1 1 0 0 1 1.388 1.44l-8.308 8a1 1 0 0 1-1.387 0l-3.693-3.555a1 1 0 1 1 1.388-1.44l2.998 2.887 7.614-7.332z"/></defs><use xlink:href="#aea" transform="translate(-4 -6)"/></symbol><symbol viewBox="0 0 12 8" id="icon-chevron-bottom" xmlns="http://www.w3.org/2000/svg"><defs><path id="afa" d="M14.884 7.76L11 11.945 7.116 7.76a.962.962 0 0 0-1.411.001l-.076.082a1 1 0 0 0 0 1.359L11 15l5.37-5.798a1 1 0 0 0 0-1.36l-.075-.08a.962.962 0 0 0-1.41-.002z"/></defs><use fill-opacity=".7" fill-rule="evenodd" transform="translate(-5 -7)" xlink:href="#afa"/></symbol><symbol viewBox="0 0 8 12" id="icon-chevron-left" xmlns="http://www.w3.org/2000/svg"><defs><path id="aga" d="M10.95 7l-5.264 5.369a1 1 0 0 0 0 1.4l.013.013a.98.98 0 0 0 1.4 0l3.851-3.92 3.853 3.92a.98.98 0 0 0 1.399 0l.012-.013a1 1 0 0 0 0-1.4L10.95 7z"/></defs><use transform="rotate(-90 5 12)" xlink:href="#aga"/></symbol><symbol viewBox="0 0 8 12" id="icon-chevron-right" xmlns="http://www.w3.org/2000/svg"><defs><path id="aha" d="M10.95 7l-5.31 5.674a1 1 0 0 0 0 1.367l.06.064a.959.959 0 0 0 1.398 0L10.95 10l3.852 4.107a.959.959 0 0 0 1.4-.001l.06-.064a1 1 0 0 0 0-1.367L10.95 7z"/></defs><use transform="rotate(90 10 5)" xlink:href="#aha"/></symbol><symbol viewBox="0 0 18 18" id="icon-clock" xmlns="http://www.w3.org/2000/svg"><defs><path id="aia" d="M11 18a7 7 0 1 0 0-14 7 7 0 0 0 0 14zm0 2a9 9 0 1 0 0-18 9 9 0 0 0 0 18zm0-13a1 1 0 0 1 1 1v2.465l2.555 1.703a1 1 0 1 1-1.11 1.664l-2.986-1.991A.999.999 0 0 1 10 11l1-4.001zm-1 3.981V8a1 1 0 0 1 1-1l-1 3.981z"/></defs><use fill="#000" xlink:href="#aia" fill-rule="evenodd" transform="translate(-2 -2)"/></symbol><symbol viewBox="0 0 18 18" id="icon-clock-blue" xmlns="http://www.w3.org/2000/svg"><defs><path id="aja" d="M11 18a7 7 0 1 0 0-14 7 7 0 0 0 0 14zm0 2a9 9 0 1 0 0-18 9 9 0 0 0 0 18zm0-13a1 1 0 0 1 1 1v2.465l2.555 1.703a1 1 0 1 1-1.11 1.664l-2.986-1.991A.999.999 0 0 1 10 11l1-4.001zm-1 3.981V8a1 1 0 0 1 1-1l-1 3.981z"/></defs><use fill="#68b2e8" xlink:href="#aja" fill-rule="evenodd" transform="translate(-2 -2)"/></symbol><symbol viewBox="0 0 18 16" id="icon-desktop" xmlns="http://www.w3.org/2000/svg"><defs><path id="aka" d="M4 5v8h14V5H4zM3 3a1 1 0 0 0-1 1v10a1 1 0 0 0 1 1h7v2H8a1 1 0 0 0 0 2h6a1 1 0 0 0 0-2h-2v-2h7a1 1 0 0 0 1-1V4a1 1 0 0 0-1-1H3z"/></defs><use fill="#000" xlink:href="#aka" fill-rule="evenodd" transform="translate(-2 -3)"/></symbol><symbol viewBox="0 0 9 16" id="icon-facebook" xmlns="http://www.w3.org/2000/svg"><path d="M5.499 16V8.702h2.496l.375-2.845H5.499V4.041c0-.823.232-1.384 1.437-1.384l1.535-.001V.111A21.21 21.21 0 0 0 6.234 0c-2.214 0-3.73 1.326-3.73 3.76v2.097H0v2.845h2.504V16z" fill="#010002"/></symbol><symbol viewBox="0 0 32 32" id="icon-google" xmlns="http://www.w3.org/2000/svg"><path fill="#444" d="M16 0C7.2 0 0 7.2 0 16s7.2 16 16 16 16-7.2 16-16S24.8 0 16 0zm-3.9 23c-3.9 0-7-3.1-7-7s3.1-7 7-7c1.9 0 3.5.7 4.7 1.8l-1.9 1.8c-.5-.5-1.4-1.1-2.8-1.1-2.4 0-4.3 2-4.3 4.4s2 4.4 4.3 4.4c2.8 0 3.8-2 4-3H12V15h6.8c.1.3.1.7.1 1.2 0 4-2.7 6.8-6.8 6.8zM27 17h-2v2h-2v-2h-2v-2h2v-2h2v2h2v2z"/></symbol><symbol viewBox="0 0 18 18" id="icon-instagram" xmlns="http://www.w3.org/2000/svg"><defs><path id="ana" d="M15.033 2H6.967A4.973 4.973 0 0 0 2 6.967v8.066A4.973 4.973 0 0 0 6.967 20h8.066A4.973 4.973 0 0 0 20 15.033V6.967A4.973 4.973 0 0 0 15.033 2zm3.37 13.033a3.374 3.374 0 0 1-3.37 3.37H6.967a3.374 3.374 0 0 1-3.37-3.37V6.967a3.374 3.374 0 0 1 3.37-3.37h8.066a3.374 3.374 0 0 1 3.37 3.37v8.066zM11 6.286A4.72 4.72 0 0 0 6.286 11 4.72 4.72 0 0 0 11 15.714 4.72 4.72 0 0 0 15.714 11 4.72 4.72 0 0 0 11 6.286zm0 7.805A3.094 3.094 0 0 1 7.909 11 3.095 3.095 0 0 1 11 7.909 3.095 3.095 0 0 1 14.091 11 3.094 3.094 0 0 1 11 14.09zm5.143-9.52a1.29 1.29 0 0 0-1.286 1.286c0 .338.138.67.378.91.238.238.57.376.908.376.339 0 .67-.138.91-.377.239-.24.376-.571.376-.909 0-.339-.137-.67-.377-.91a1.291 1.291 0 0 0-.91-.376z"/></defs><use fill="#000" fill-rule="nonzero" xlink:href="#ana" transform="translate(-2 -2)"/></symbol><symbol viewBox="0 0 17 17" id="icon-linkedin" xmlns="http://www.w3.org/2000/svg"><defs><path id="aoa" d="M20 12.981v6.297h-3.645V13.4c0-1.478-.526-2.482-1.845-2.482-1.008 0-1.603.68-1.869 1.334-.096.236-.125.566-.125.892v6.134H8.875s.049-9.952 0-10.983h3.642v1.557c-.005.013-.015.023-.02.037h.02v-.037c.487-.748 1.349-1.814 3.285-1.814C18.204 8.038 20 9.607 20 12.98zM5.062 3C3.816 3 3 3.82 3 4.9c0 1.05.792 1.898 2.015 1.898h.022c1.274 0 2.063-.847 2.063-1.899C7.075 3.82 6.31 3 5.062 3zM3.217 19.278H6.86V8.295H3.217v10.983z"/></defs><use transform="translate(-3 -3)" xlink:href="#aoa"/></symbol><symbol viewBox="0 0 18 14" id="icon-mail" xmlns="http://www.w3.org/2000/svg"><defs><path id="apa" d="M4 7v9h14V7l-5.8 4.35a2 2 0 0 1-2.4 0L4 7zm12-1H6l5 3.75L16 6zM2 5a1 1 0 0 1 1-1h16a1 1 0 0 1 1 1v12a1 1 0 0 1-1 1H3a1 1 0 0 1-1-1V5z"/></defs><use xlink:href="#apa" transform="translate(-2 -4)"/></symbol><symbol viewBox="0 0 18 8" id="icon-menu" xmlns="http://www.w3.org/2000/svg"><defs><path id="aqa" d="M3 7a1 1 0 0 0 0 2h16a1 1 0 0 0 0-2H3zm0 6a1 1 0 0 0 0 2h16a1 1 0 0 0 0-2H3z"/></defs><use fill-rule="evenodd" transform="translate(-2 -7)" xlink:href="#aqa"/></symbol><symbol viewBox="0 0 17 17" id="icon-pencil" xmlns="http://www.w3.org/2000/svg"><defs><path id="ara" d="M10 0a1 1 0 0 0-1 1v1H8a1 1 0 0 0-1 1v15.336a1 1 0 0 0 .322.735l2.5 2.304a1 1 0 0 0 1.356 0l2.5-2.304a1 1 0 0 0 .322-.735V3a1 1 0 0 0-1-1h-1V1a1 1 0 0 0-1-1h-1zm0 4h2v11H9V4h1zM9 17v.898l1.5 1.382 1.5-1.382V17H9z"/></defs><use fill-rule="evenodd" transform="rotate(45 11.914 7.406)" xlink:href="#ara"/></symbol><symbol viewBox="0 0 16 16" id="icon-phone" xmlns="http://www.w3.org/2000/svg"><defs><path id="asa" d="M3.1 5.13a.974.974 0 0 1 .625-1.368l2.708-.744a.5.5 0 0 1 .574.249l1.856 3.51a.5.5 0 0 1-.14.634L7.128 8.608c1.8 2.625 3.58 4.36 6 6l1.174-1.6a.5.5 0 0 1 .644-.142l3.697 2.029a.498.498 0 0 1 .24.577l-.759 2.61a1.017 1.017 0 0 1-1.435.618c-1.622-.815-2.9-1.4-4.636-2.672-1.79-1.261-4.726-4.098-6.312-6.312C4.71 8.275 3.688 6.32 3.1 5.13z"/></defs><use xlink:href="#asa" transform="translate(-3 -3)"/></symbol><symbol viewBox="0 0 14 18" id="icon-pin" xmlns="http://www.w3.org/2000/svg"><defs><path id="ata" d="M16 9c0 .452-.236 1.258-.853 2.398-.585 1.08-1.389 2.24-2.23 3.33A47.577 47.577 0 0 1 11 17.044a47.577 47.577 0 0 1-1.917-2.318c-.841-1.09-1.645-2.248-2.23-3.33C6.236 10.259 6 9.453 6 9a5 5 0 1 1 10 0zm2 0c0 2.775-3.605 7.232-5.641 9.528C11.558 19.431 11 20 11 20s-.558-.569-1.359-1.472C7.605 16.232 4 11.775 4 9a7 7 0 0 1 14 0zm-6 0a1 1 0 1 1-2 0 1 1 0 0 1 2 0zm2 0a3 3 0 1 1-6 0 3 3 0 0 1 6 0z"/></defs><use fill="#000" xlink:href="#ata" fill-rule="evenodd" transform="translate(-4 -2)"/></symbol><symbol viewBox="0 0 14 18" id="icon-pin-blue" xmlns="http://www.w3.org/2000/svg"><defs><path id="aua" d="M16 9c0 .452-.236 1.258-.853 2.398-.585 1.08-1.389 2.24-2.23 3.33A47.577 47.577 0 0 1 11 17.044a47.577 47.577 0 0 1-1.917-2.318c-.841-1.09-1.645-2.248-2.23-3.33C6.236 10.259 6 9.453 6 9a5 5 0 1 1 10 0zm2 0c0 2.775-3.605 7.232-5.641 9.528C11.558 19.431 11 20 11 20s-.558-.569-1.359-1.472C7.605 16.232 4 11.775 4 9a7 7 0 0 1 14 0zm-6 0a1 1 0 1 1-2 0 1 1 0 0 1 2 0zm2 0a3 3 0 1 1-6 0 3 3 0 0 1 6 0z"/></defs><use fill="#68b2e8" xlink:href="#aua" fill-rule="evenodd" transform="translate(-4 -2)"/></symbol><symbol viewBox="0 0 9 12" id="icon-play" xmlns="http://www.w3.org/2000/svg"><defs><path id="ava" d="M14.86 10.186L8.582 5.701A1 1 0 0 0 7 6.515v8.97a1 1 0 0 0 1.581.814l6.28-4.485a1 1 0 0 0 0-1.628z"/></defs><use xlink:href="#ava" transform="translate(-7 -5)"/></symbol><symbol viewBox="0 0 12 12" id="icon-plus" xmlns="http://www.w3.org/2000/svg"><defs><path id="awa" d="M14.8 8.614a1 1 0 0 0-1.413-1.415L11 9.586 8.614 7.199a1 1 0 0 0-1.415 1.414L9.586 11l-2.387 2.387A1 1 0 1 0 8.614 14.8L11 12.414l2.387 2.387a1 1 0 0 0 1.414-1.415L12.414 11l2.387-2.386z"/></defs><use fill-rule="evenodd" transform="rotate(-45 2.465 14.536)" xlink:href="#awa"/></symbol><symbol viewBox="0 0 20 20" id="icon-ruler" xmlns="http://www.w3.org/2000/svg"><defs><path id="axa" d="M6.429 13.571A1.01 1.01 0 1 1 5 15a1.01 1.01 0 0 1 1.429-1.429zm9.285-6.428l-1.428-1.429-1.429 1.429 1.429 1.428-1.429 1.428-1.428-1.428L10 10l1.428 1.43L10 12.858 8.57 11.43l-1.428 1.428 1.428 1.429-2.857 2.857-2.857-2.857 11.429-11.43 2.857 2.858-1.43 1.429.002-.001zm2.858-2.857l-2.858-2.858L14.286 0l-1.429 1.428-11.429 11.43L0 14.286l1.428 1.428 2.858 2.858L5.714 20l1.429-1.428 2.858-2.858 1.428-1.428 1.428-1.429 1.429-1.428 1.428-1.43 1.43-1.428 1.428-1.428L20 5.714l-1.428-1.428z"/></defs><use xlink:href="#axa"/></symbol><symbol viewBox="0 0 9 49" id="icon-separator" xmlns="http://www.w3.org/2000/svg"><path d="M4.5.5a4.5 4.5 0 1 0 0 9 4.5 4.5 0 0 0 0-9zm0 48a4.5 4.5 0 1 0 0-9 4.5 4.5 0 0 0 0 9zm0-1a3.5 3.5 0 1 1 0-7 3.5 3.5 0 0 1 0 7zM4 9v2a.5.5 0 1 0 1 0V9a.5.5 0 1 0-1 0zm0 6v2a.5.5 0 1 0 1 0v-2a.5.5 0 1 0-1 0zm0 6v2a.5.5 0 1 0 1 0v-2a.5.5 0 1 0-1 0zm0 6v2a.5.5 0 1 0 1 0v-2a.5.5 0 1 0-1 0zm0 6v2a.5.5 0 0 0 1 0v-2a.5.5 0 1 0-1 0zm0 6v1a.5.5 0 0 0 1 0v-1a.5.5 0 0 0-1 0z"/></symbol><symbol viewBox="0 0 47 9" id="icon-separator-h" xmlns="http://www.w3.org/2000/svg"><path d="M.5 4.5a4.5 4.5 0 1 0 9 0 4.5 4.5 0 0 0-9 0zm46 0a4.5 4.5 0 1 0-9 0 4.5 4.5 0 0 0 9 0zm-1 0a3.5 3.5 0 1 1-7 0 3.5 3.5 0 0 1 7 0zM9 5h2V4H9v1zm4 0h2V4h-2v1zm4 0h2V4h-2v1zm4 0h2V4h-2v1zm4 0h2V4h-2v1zm4 0h2V4h-2v1zm4 0h2V4h-2v1zm4 0h1V4h-1v1z"/></symbol><symbol viewBox="0 0 17 14" id="icon-twitter" xmlns="http://www.w3.org/2000/svg"><defs><path id="baa" d="M20 5.634a6.964 6.964 0 0 1-2.002.549 3.502 3.502 0 0 0 1.532-1.928 7.03 7.03 0 0 1-2.216.847 3.488 3.488 0 0 0-5.942 3.18 9.9 9.9 0 0 1-7.188-3.645 3.46 3.46 0 0 0-.471 1.753c0 1.21.616 2.278 1.55 2.902a3.488 3.488 0 0 1-1.579-.437v.043a3.49 3.49 0 0 0 2.797 3.42c-.292.078-.6.122-.919.122-.225 0-.443-.022-.656-.065a3.49 3.49 0 0 0 3.257 2.422 6.997 6.997 0 0 1-4.331 1.49c-.282 0-.559-.016-.832-.047a9.858 9.858 0 0 0 5.345 1.569c6.416 0 9.922-5.314 9.922-9.922l-.011-.451A6.964 6.964 0 0 0 20 5.633z"/></defs><use fill="#010002" fill-rule="nonzero" xlink:href="#baa" transform="translate(-3 -4)"/></symbol></svg>