<svg xmlns="http://www.w3.org/2000/svg" width="616" height="321" viewBox="0 0 616 321">
  <g fill="none" fill-rule="evenodd" stroke="#FFF" stroke-width=".567" transform="matrix(-1 0 0 1 615 0)">
    <path d="M247.8299,195.5533 L199.3359,186.8083 L247.8299,195.5533 Z M205.6409,177.0333 L206.8329,186.7733 L206.0379,187.7163 L208.9689,211.1183 L206.9819,214.1003 L207.3789,221.2543 L206.5349,222.2483 L207.5779,227.5653 L205.6409,177.0333 Z M247.7809,183.7283 L249.0229,194.6093 L248.1519,195.2993 L250.9609,222.4333 L248.2779,224.4203 L249.4709,233.1653 L248.5759,234.8553 L250.2659,241.1163 L247.7809,183.7283 Z M316.9949,186.5603 C308.8209,197.5723 306.7499,219.5353 308.6469,246.9783 L305.2679,249.3633 C303.9439,253.6033 300.2339,254.8623 295.3309,254.3313 L209.6719,226.5073 L192.1829,224.1223 L188.9529,217.3163 L188.6049,174.2383 L210.8649,176.0263 L239.2849,180.5973 L253.7939,183.1813 L270.0909,182.7833 L302.6849,187.9503 L304.8709,185.3673 L316.9949,186.5603 Z M330.9889,214.3853 C338.7689,213.9763 345.6579,224.9193 346.3729,238.8283 C347.0899,252.7383 341.3639,264.3453 333.5829,264.7553 C325.8029,265.1643 318.9139,254.2213 318.1989,240.3123 C317.4819,226.4033 323.2079,214.7953 330.9889,214.3853 Z M328.4929,197.9673 C341.0349,197.3153 352.1379,214.7593 353.2919,236.9323 C354.4479,259.1043 345.2159,277.6083 332.6739,278.2613 C320.1319,278.9143 309.0289,261.4693 307.8739,239.2973 C306.7189,217.1243 315.9509,198.6203 328.4929,197.9673 Z M338.6629,197.9683 C351.2809,197.3113 362.4509,214.8603 363.6119,237.1643 C364.7739,259.4693 355.4879,278.0833 342.8709,278.7413 C330.2529,279.3983 319.0829,261.8493 317.9219,239.5443 C316.7599,217.2393 326.0459,198.6243 338.6629,197.9683 Z M343.7599,197.9683 C356.3499,197.3123 367.4959,214.8243 368.6549,237.0793 C369.8139,259.3363 360.5469,277.9113 347.9569,278.5673 C335.3679,279.2223 324.2219,261.7113 323.0629,239.4543 C321.9039,217.1983 331.1699,198.6233 343.7599,197.9683 Z M348.8489,197.9683 C361.4549,197.3113 372.6159,214.8453 373.7759,237.1303 C374.9369,259.4163 365.6579,278.0143 353.0519,278.6713 C340.4459,279.3273 329.2869,261.7933 328.1249,239.5083 C326.9649,217.2223 336.2429,198.6243 348.8489,197.9683 Z M333.5839,198.1663 C346.1259,197.5133 357.2299,214.9583 358.3839,237.1303 C359.5389,259.3033 350.3079,277.8073 337.7659,278.4593 C325.2239,279.1133 314.1209,261.6683 312.9659,239.4953 C311.8109,217.3243 321.0419,198.8203 333.5839,198.1663 Z M326.8099,255.4133 C326.4889,255.5733 326.5219,256.2943 326.8829,257.0253 C327.2459,257.7563 327.7989,258.2193 328.1209,258.0603 C328.4429,257.9013 328.4099,257.1793 328.0469,256.4493 C327.6859,255.7183 327.1319,255.2543 326.8099,255.4133 Z M322.8109,223.2313 C323.1649,223.2873 323.3489,223.9863 323.2209,224.7903 C323.0929,225.5963 322.7029,226.2033 322.3479,226.1483 C321.9939,226.0913 321.8099,225.3933 321.9379,224.5873 C322.0659,223.7823 322.4569,223.1743 322.8109,223.2313 Z M322.6209,232.6493 C323.0429,232.6493 323.3849,233.4273 323.3849,234.3873 C323.3849,235.3473 323.0429,236.1253 322.6209,236.1253 C322.1989,236.1253 321.8559,235.3473 321.8559,234.3873 C321.8559,233.4273 322.1989,232.6493 322.6209,232.6493 Z M322.2889,239.7713 C322.7109,239.7713 323.0539,240.5493 323.0539,241.5093 C323.0539,242.4693 322.7109,243.2473 322.2889,243.2473 C321.8679,243.2473 321.5249,242.4693 321.5249,241.5093 C321.5249,240.5493 321.8679,239.7713 322.2889,239.7713 Z M324.3809,246.5623 C324.7689,246.5623 325.0829,247.2773 325.0829,248.1593 C325.0829,249.0413 324.7689,249.7573 324.3809,249.7573 C323.9929,249.7573 323.6779,249.0413 323.6779,248.1593 C323.6779,247.2773 323.9929,246.5623 324.3809,246.5623 Z M328.3889,249.7913 C328.8419,249.7913 329.2079,250.6253 329.2079,251.6543 C329.2079,252.6823 328.8419,253.5163 328.3889,253.5163 C327.9369,253.5163 327.5699,252.6823 327.5699,251.6543 C327.5699,250.6253 327.9369,249.7913 328.3889,249.7913 Z M332.6129,248.6313 C333.0659,248.6313 333.4319,249.4653 333.4319,250.4943 C333.4319,251.5233 333.0659,252.3573 332.6129,252.3573 C332.1599,252.3573 331.7929,251.5233 331.7929,250.4943 C331.7929,249.4653 332.1599,248.6313 332.6129,248.6313 Z M335.1799,243.0833 C335.6319,243.0833 335.9989,243.9173 335.9989,244.9463 C335.9989,245.9743 335.6319,246.8083 335.1799,246.8083 C334.7269,246.8083 334.3609,245.9743 334.3609,244.9463 C334.3609,243.9173 334.7269,243.0833 335.1799,243.0833 Z M335.2629,235.5473 C335.7149,235.5473 336.0819,236.3813 336.0819,237.4103 C336.0819,238.4393 335.7149,239.2733 335.2629,239.2733 C334.8099,239.2733 334.4429,238.4393 334.4429,237.4103 C334.4429,236.3813 334.8099,235.5473 335.2629,235.5473 Z M332.6959,228.6743 C333.1479,228.6743 333.5149,229.5083 333.5149,230.5363 C333.5149,231.5663 333.1479,232.4003 332.6959,232.4003 C332.2429,232.4003 331.8759,231.5663 331.8759,230.5363 C331.8759,229.5083 332.2429,228.6743 332.6959,228.6743 Z M328.5549,225.8593 C329.0069,225.8593 329.3739,226.6933 329.3739,227.7213 C329.3739,228.7493 329.0069,229.5833 328.5549,229.5833 C328.1019,229.5833 327.7359,228.7493 327.7359,227.7213 C327.7359,226.6933 328.1019,225.8593 328.5549,225.8593 Z M324.7459,227.0183 C325.1979,227.0183 325.5649,227.8523 325.5649,228.8803 C325.5649,229.9093 325.1979,230.7423 324.7459,230.7423 C324.2929,230.7423 323.9259,229.9093 323.9259,228.8803 C323.9259,227.8523 324.2929,227.0183 324.7459,227.0183 Z M328.9769,231.4073 C331.4929,231.4073 333.5309,235.0403 333.5309,239.5223 C333.5309,244.0033 331.4929,247.6363 328.9769,247.6363 C326.4609,247.6363 324.4229,244.0033 324.4229,239.5223 C324.4229,235.0403 326.4609,231.4073 328.9769,231.4073 Z M330.4239,233.9743 C331.7729,233.9743 332.8659,236.4583 332.8659,239.5223 C332.8659,242.5853 331.7729,245.0703 330.4239,245.0703 C329.0769,245.0703 327.9839,242.5853 327.9839,239.5223 C327.9839,236.4583 329.0769,233.9743 330.4239,233.9743 Z M327.5729,235.7963 C328.3979,235.7963 329.0659,237.3163 329.0659,239.1913 C329.0659,241.0653 328.3979,242.5843 327.5729,242.5843 C326.7469,242.5843 326.0789,241.0653 326.0789,239.1913 C326.0789,237.3163 326.7469,235.7963 327.5729,235.7963 Z M332.7239,257.4673 C332.2779,258.2883 332.6239,259.6523 333.4989,260.5113 C334.3729,261.3703 335.4439,261.4013 335.8899,260.5793 C336.3359,259.7573 335.9899,258.3953 335.1159,257.5343 C334.2419,256.6753 333.1699,256.6453 332.7239,257.4673 Z M341.0129,255.2823 C342.1349,254.7133 342.5489,253.2773 341.9399,252.0743 C341.3289,250.8703 339.9249,250.3563 338.8029,250.9243 C337.6819,251.4923 337.2669,252.9303 337.8769,254.1333 C338.4869,255.3363 339.8909,255.8513 341.0129,255.2823 Z M328.9529,218.4313 C329.0599,219.3273 328.5539,220.6743 327.8219,221.4383 C327.0899,222.2013 326.4109,222.0933 326.3019,221.1973 C326.1949,220.2993 326.7009,218.9523 327.4329,218.1893 C328.1639,217.4253 328.8449,217.5333 328.9529,218.4313 Z M335.9929,219.6823 C336.4569,220.5383 336.0959,221.9593 335.1849,222.8563 C334.2729,223.7513 333.1569,223.7833 332.6919,222.9263 C332.2259,222.0703 332.5869,220.6493 333.4989,219.7533 C334.4109,218.8573 335.5269,218.8253 335.9929,219.6823 Z M341.2609,227.3243 C342.3829,227.8923 342.7979,229.3283 342.1879,230.5323 C341.5779,231.7363 340.1739,232.2503 339.0519,231.6813 C337.9299,231.1133 337.5149,229.6763 338.1249,228.4733 C338.7349,227.2703 340.1389,226.7543 341.2609,227.3243 Z M342.1029,239.3573 C343.3609,239.3573 344.3799,240.4503 344.3799,241.8003 C344.3799,243.1493 343.3609,244.2423 342.1029,244.2423 C340.8449,244.2423 339.8259,243.1493 339.8259,241.8003 C339.8259,240.4503 340.8449,239.3573 342.1029,239.3573 Z M327.0319,237.2033 C327.5579,237.2033 327.9839,238.1733 327.9839,239.3683 C327.9839,240.5643 327.5579,241.5333 327.0319,241.5333 C326.5049,241.5333 326.0789,240.5643 326.0789,239.3683 C326.0789,238.1733 326.5049,237.2033 327.0319,237.2033 Z M511.0169,217.7723 C511.7569,217.7723 512.3579,218.9213 512.3579,220.3393 C512.3579,221.7573 511.7569,222.9073 511.0169,222.9073 C510.2769,222.9073 509.6759,221.7573 509.6759,220.3393 C509.6759,218.9213 510.2769,217.7723 511.0169,217.7723 Z M445.5209,228.8093 C446.7569,228.8093 447.7589,230.0513 447.7589,231.5833 C447.7589,233.1163 446.7569,234.3583 445.5209,234.3583 C444.2849,234.3583 443.2829,233.1163 443.2829,231.5833 C443.2829,230.0513 444.2849,228.8093 445.5209,228.8093 Z"/>
    <path stroke-dasharray=".567 2.835" d="M248.8236,224.5699 L193.3736,210.6569"/>
    <path d="M311.8265,188.0005 C301.8885,207.5985 300.6955,228.4905 305.0685,250.2075 M306.0625,250.0085 C273.2685,241.7295 240.8735,231.8555 208.0805,221.9855 L188.6035,218.6065 M251.2085,222.3835 L209.8695,211.2535 L192.7775,210.4585"/>
    <path stroke-dasharray=".567 2.835" d="M493.8695,156.9156 C470.4335,139.3586 425.9065,127.4496 395.0995,119.2336 M448.8415,159.0956 C433.9355,146.8826 390.2655,130.1296 361.1475,119.4776 M380.9895,184.8196 C361.3835,175.2096 315.2845,157.8586 285.2765,153.7446 M444.7045,219.1096 C425.5565,156.2166 331.4295,156.6036 285.8325,152.9866 M434.4975,164.9606 L395.8955,151.2316"/>
    <path d="M435.2249,121.3541 C459.3059,129.6401 491.7079,149.4841 504.7999,161.4871"/>
    <path stroke-dasharray=".567 2.835" d="M374.558,144.6172 L325.739,133.5432"/>
    <path d="M430.3265,120.48 C394.6835,119.244 367.3295,119.431 331.3505,119.585 C325.7855,119.501 321.0155,117.915 317.8365,113.325 L309.6875,77.948 C308.9335,70.691 313.1245,67.749 318.9295,67.514 C363.1085,69.505 406.1125,71.539 412.8365,74.868 C420.1755,77.249 426.5895,98.762 433.1085,118.095 L432.7115,120.48 L430.3265,120.48 Z M433.2215,116.784 L433.2785,101.261 C433.2605,99.69 434.0265,98.56 435.8125,98.28 L440.7735,99.129 C441.9005,99.712 442.5935,100.567 442.6615,101.813 L442.8595,124.215 L435.1315,121.212 L433.2215,116.784 Z M506.0615,145.017 C506.4265,143.891 506.4435,142.267 504.3725,141.836 C500.9395,141.671 499.9555,140.744 498.7585,137.762 C497.7105,132.313 499.1265,129.515 501.7885,129.498 L508.5965,129.415 C512.5205,129.723 513.9965,131.558 514.6095,133.854 L515.3055,139.269 C515.4295,141.612 513.7315,143.644 509.2345,143.734 L498.2645,156.336 L494.5695,153.339 L506.0615,145.017 Z"/>
    <path stroke-dasharray=".567 2.835" d="M417.7513,103.6016 C415.0593,95.8686 411.3463,82.5536 407.3173,81.6406 L391.6163,83.3296 C388.8073,83.3636 387.7683,86.4416 388.1393,90.1856 L388.4373,108.9676 L417.8513,110.8556 C419.4933,110.9966 419.1883,106.2766 417.7513,103.6016 Z"/>
    <path d="M314.849,184.5377 L264.222,177.1397 L250.804,176.5637 L207.976,171.1767 L193.866,170.1837 L314.849,184.5377 Z M408.401,61.9057 C409.188,61.5917 410.575,63.2117 411.496,65.5247 C412.418,67.8367 412.528,69.9667 411.741,70.2807 C410.953,70.5937 409.568,68.9737 408.646,66.6617 C407.723,64.3487 407.614,62.2197 408.401,61.9057 Z M378.609,57.5777 C379.424,57.2517 380.86,58.9307 381.815,61.3267 C382.771,63.7227 382.884,65.9287 382.069,66.2537 C381.252,66.5797 379.817,64.9007 378.862,62.5047 C377.906,60.1087 377.792,57.9027 378.609,57.5777 Z M368.77,56.9807 C369.586,56.6557 371.022,58.3347 371.977,60.7307 C372.933,63.1267 373.046,65.3327 372.231,65.6587 C371.414,65.9827 369.979,64.3047 369.024,61.9087 C368.068,59.5127 367.954,57.3067 368.77,56.9807 Z M358.932,56.5837 C359.748,56.2587 361.184,57.9367 362.139,60.3327 C363.095,62.7287 363.208,64.9347 362.393,65.2607 C361.577,65.5857 360.141,63.9077 359.186,61.5117 C358.23,59.1157 358.117,56.9097 358.932,56.5837 Z M317.65,53.6727 C318.508,53.4887 319.642,55.3847 320.182,57.9067 C320.722,60.4287 320.464,62.6227 319.605,62.8067 C318.746,62.9907 317.613,61.0947 317.073,58.5717 C316.533,56.0497 316.791,53.8557 317.65,53.6727 Z M430.227,120.2817 C394.081,119.1287 366.433,119.4787 329.959,119.7847 C324.395,119.7007 319.624,118.1137 316.446,113.5237 L307.701,76.1597 C306.947,68.9027 311.137,65.9597 316.942,65.7257 C361.121,67.7167 406.113,69.6507 412.836,72.9797 C419.579,74.8637 426.49,98.5627 433.009,117.8957 L432.612,120.2807 L430.227,120.2817 Z M373.58,70.4617 L391.368,115.1797 L389.281,114.8817 L371.096,70.2627 L373.58,70.4617 Z"/>
    <path stroke-dasharray=".567 2.835" d="M298.9022,202.479 L292.6412,204.565 L256.6692,198.206 L265.8112,196.616 L298.9022,202.479 Z M260.1472,224.937 L249.1162,227.917 L284.2942,237.458 L294.3312,233.483 L260.1472,224.937 Z"/>
    <path d="M264.221,173.3843 L264.618,175.3713 L271.078,176.0673 L270.382,173.9803 L264.221,173.3843 Z M266.508,152.0453 C266.796,152.0453 267.029,152.2893 267.029,152.5913 C267.029,152.8933 266.796,153.1383 266.508,153.1383 C266.22,153.1383 265.986,152.8933 265.986,152.5913 C265.986,152.2893 266.22,152.0453 266.508,152.0453 Z M265.911,153.6353 L265.613,163.9703 L267.004,166.0573 L268.582,166.0943 L266.657,163.5723 L266.955,153.7843 L265.911,153.6353 Z M264.37,151.1033 L264.668,165.2133 C265.148,168.8643 269.67,170.0263 269.637,167.9963 L269.637,153.0903 C269.054,150.3493 264.787,149.1403 264.37,151.1033 Z M328.068,119.9993 C325.176,121.6753 324.102,125.8423 323.596,132.8183 L312.665,130.9303 L328.068,119.9993 Z M328.565,119.9993 L329.558,121.2913 C325.674,125.7173 326.011,131.6373 325.384,138.1843 C324.815,144.1353 324.69,152.3683 324.69,152.3683 L319.522,159.2253 C317.998,163.1333 318.462,169.8243 317.932,175.1243 L315.05,181.2853 L314.852,184.9623 L328.565,119.9993 Z M302.231,125.2653 L296.368,125.3643 L291.2,127.5513 L290.207,130.3333 C286.305,131.2103 281.572,126.9763 276.344,121.4893 C278.828,121.4563 281.015,120.9753 282.356,118.7063 L281.661,86.3113 C281.528,85.2843 280.601,84.6553 279.474,84.4233 L267.351,84.6223 C265.88,84.9063 264.98,85.7623 264.569,87.1063 L264.767,119.0053 C264.911,120.1163 265.534,121.2213 266.606,121.5383 L272.718,121.6383 C280.039,130.3613 284.873,134.4633 289.809,133.9103 L289.809,135.7993 L295.473,139.9723 L300.741,139.8733 L302.032,139.0783 L302.231,125.2653 Z M272.269,74.6343 C277.7,72.2423 286.808,71.4433 295.324,71.2563 C297.941,71.7683 301.552,80.9463 304.665,98.6833 C307.276,113.0243 306.096,120.9113 299.697,120.9433 L282.207,119.7503 L281.809,85.7643 C281.743,84.9693 281.213,84.4403 280.219,84.1753 L269.288,84.5723 C269.197,80.1753 270.108,76.7803 272.269,74.6343 Z M310.231,67.6783 L308.044,67.0823 C304.262,60.5113 298.975,56.7593 290.952,58.1383 L209.069,73.2433 L196.151,74.8333 L310.231,67.6783 Z M265.612,67.6783 L292.045,63.3063 C298.728,61.9673 302.123,65.4413 304.566,73.6413 C312.438,94.8143 313.389,124.9433 311.124,150.3573 C303.275,163.4113 311.073,172.0883 301.387,182.5533 L263.824,177.3863 C261.651,157.2173 261.159,136.6733 261.638,115.9733 C261.96,99.3743 263.17,83.2183 265.612,67.6783 Z M269.786,184.2933 L266.904,195.1253 L299.001,200.6903 L302.579,189.5603 L269.786,184.2933 Z"/>
    <path stroke-dasharray=".567 2.835" d="M213.4408,142.8765 C209.6428,142.4695 208.9228,146.2945 209.3668,151.7205 L210.0618,161.9555 C210.7408,165.3065 212.1328,167.0865 214.1368,167.5215 L229.3408,168.8135 C231.9558,169.2955 233.0858,167.1045 232.5208,160.6635 L231.8248,147.1495 C231.1288,145.5595 230.4338,144.2675 228.2478,143.2735 L213.4408,142.8765 Z"/>
    <path d="M216.621,78.9796 C214.448,79.6186 211.871,82.6476 211.652,85.9366 L210.062,128.2686 C210.031,132.6126 211.352,134.5906 213.441,135.2246 L223.776,135.2246 C227.03,135.6896 228.67,133.1046 229.539,129.0636 L230.334,81.9606 C230.638,78.8746 229.368,77.3626 226.757,77.1906 L216.621,78.9796 Z"/>
    <path stroke-dasharray=".567 2.835" d="M219.8006,88.9171 C217.6186,89.7901 216.1186,91.4571 215.5276,94.1841 L214.8316,120.5181 C214.5766,122.7331 215.0536,124.3311 216.5216,125.0881 L221.3906,125.1881 C223.4056,124.7001 224.1456,123.1911 224.1726,121.1141 L225.1666,91.8981 C224.7496,90.3501 223.8286,89.2061 222.0866,88.7181 L219.8006,88.9171 Z"/>
    <path d="M253.0414,55.5782 L286.3314,49.9132 C300.0074,47.9332 311.6734,48.7172 323.2144,49.6732 L409.0564,58.5592 L253.0414,55.5782 Z M236.8434,27.7532 C238.7314,22.6852 231.0804,21.4932 227.0054,25.6662 C221.7744,32.3492 219.2824,41.5732 217.7644,51.7022 C217.8304,55.0152 219.3864,55.6442 221.2414,53.8892 L236.8434,27.7532 Z M226.7074,5.0972 C222.7384,7.1712 220.0104,10.1772 218.1614,13.8412 L209.2174,71.8752 C206.8224,104.9992 207.1064,138.1232 208.4224,171.2472 L226.7074,5.0972 Z"/>
    <path stroke-dasharray=".567 2.835" d="M265.1654,30.8345 C257.2154,22.8845 241.1174,12.1525 228.7954,17.7175 C220.3814,22.6395 218.2504,32.0695 217.4664,41.1685"/>
    <path d="M435.1917,121.3541 L435.1917,121.1646 L431.0177,112.8176 C425.8367,93.7436 418.0657,75.9646 408.6447,59.0116 L403.5907,55.3806 C391.6917,32.8146 374.1507,19.1166 351.1227,14.0416 C302.2667,4.3146 252.8457,-5.9644 225.5157,5.2966 L217.1677,5.6936 L198.0887,11.8556 L194.3127,170.2556 L194.3127,170.376 M427.5237,119.8446 L417.6307,114.4366 L393.2567,114.9036 L393.0287,113.5006 L418.0027,113.4826 L431.2437,120.0146 L427.5237,119.8446 Z M373.4817,119.1766 L361.5567,112.0216 L325.6827,111.1276 L325.7827,109.5376 L361.7547,110.8296 L376.2637,118.8786 L373.4817,119.1766 Z M274.5057,1.4206 L309.4857,26.2636 C317.8997,32.7556 326.5107,36.8636 334.9247,38.5856 L377.4567,42.9576 C385.6457,43.7866 387.4207,40.6066 378.6487,30.8346 C369.8787,21.0616 345.0607,13.1456 346.2537,13.1456 L274.5057,1.4206 Z"/>
    <path stroke-dasharray=".567 2.835" d="M371.9906,207.3208 C370.9966,198.8418 370.5986,189.9638 372.7856,182.0808 C373.7866,175.2088 388.0096,176.3608 406.1756,182.0808 L404.9816,154.0568 C407.2616,148.7738 408.1826,143.0978 419.0936,138.9528 L449.8986,135.5738 L470.0126,137.3628 M327.8686,186.4518 L329.6576,163.3968 C332.0206,158.8628 333.9846,156.8018 342.1786,157.0368 L343.5696,137.7588 C343.3236,128.2538 353.3546,121.8918 367.4196,122.4558 L400.8076,120.8658 L439.6726,122.6878 M342.1786,192.0158 L343.9676,168.9628 C346.3306,164.4268 351.4736,162.1688 359.6676,162.4038 L362.2516,142.3308 C364.6236,134.7288 370.5466,129.5528 381.7286,128.0208 L405.0676,124.0008 L446.8036,125.9878 M359.4696,202.7498 C359.2706,194.8658 358.0786,188.3738 360.8606,176.5148 C363.4516,171.8298 370.5186,170.3978 378.9466,169.9568 L381.3316,146.9028 C384.5156,140.0658 389.9486,134.7898 400.0136,132.5928 L430.8186,129.2148 L456.9326,130.8158"/>
    <path d="M410.933,170.1207 C407.729,170.5227 404.629,169.1547 401.691,165.0527 C401.077,157.1927 387.018,152.3337 380.069,146.8187 C376.437,146.8597 373.731,144.9887 372.218,141.0547 C370.867,135.4217 371.319,132.0467 374.206,131.7137 C384.936,132.1197 389.518,132.9597 389.509,137.0307 C389.974,142.0847 389.593,146.2377 385.485,146.4217 L408.151,157.5997 C410.217,157.9927 411.948,159.3917 413.218,162.1707 C414.276,166.0807 413.321,168.5967 410.933,170.1207 Z"/>
    <path stroke-dasharray=".567 2.835" d="M249.265,180.9859 L245.39,177.6079 L240.421,176.8119 L240.322,178.4019 L242.607,179.9929 L240.819,183.4699 L239.924,181.3829 L237.142,181.5829 L238.533,196.4879 L244.396,197.6809 L244.794,194.9979 L246.185,194.5999 L245.489,183.3719 L249.067,183.2719 L249.265,180.9859 Z"/>
    <path d="M297.6122,48.5708 C287.4092,31.7438 278.9962,8.9548 238.1872,1.6678"/>
    <path stroke-dasharray=".567 2.835" d="M403.5433,55.3287 C369.3533,50.7697 334.6503,47.2347 299.4003,44.7957 L289.2643,45.9877 M361.6073,53.3407 C359.4183,49.7037 356.7363,45.6717 352.7393,40.3157 C352.2843,39.7047 350.1243,38.4917 349.6423,37.8707 C339.8693,25.3007 325.9173,10.6507 302.1833,5.0457 M395.5933,56.7197 C389.3903,40.3937 381.0933,20.9077 345.9073,12.5987 M317.6853,48.7697 C310.1903,36.3197 292.8513,8.5857 257.6643,0.2757"/>
    <path d="M197.3441,11.8033 L173.8921,10.2143 L1.4941,90.6863 L1.6891,149.1393 L169.5191,166.8243 L188.9961,166.0303 L197.3441,11.8033 Z M198.9341,12.5983 L191.7791,11.8033 L188.9961,168.8123 L193.7661,168.8123 L198.9341,12.5983 Z M255.7751,65.8633 C252.6441,101.9923 251.8831,139.3073 252.9921,177.5573 L255.7751,65.8633 Z M169.8441,200.3563 C170.5801,200.3563 171.1771,202.1833 171.1771,204.4373 C171.1771,206.6913 170.5801,208.5183 169.8441,208.5183 C169.1071,208.5183 168.5111,206.6913 168.5111,204.4373 C168.5111,202.1833 169.1071,200.3563 169.8441,200.3563 Z M167.9451,188.2293 C170.5771,188.2293 172.7101,195.3953 172.7101,204.2363 C172.7101,213.0763 170.5771,220.2423 167.9451,220.2423 C165.3131,220.2423 163.1791,213.0763 163.1791,204.2363 C163.1791,195.3953 165.3131,188.2293 167.9451,188.2293 Z"/>
    <path stroke-dasharray=".567 2.835" d="M167.6312,159.5704 L4.1542,146.6814 M169.6192,19.2564 L4.1682,92.3484 M181.2422,12.4444 L179.6552,164.9574 M169.2212,16.8714 L168.1282,157.2854 M171.3092,153.3104 L3.7622,143.4634 M148.9492,24.0264 L147.8562,164.4404 M129.8702,32.5724 L129.1742,161.8564 M113.8712,39.4294 L112.6782,161.9554 M99.0652,46.8824 L98.3692,160.0684 M86.7422,52.6464 L85.5502,158.5764 M75.4142,58.0114 L74.6182,157.2854 M65.2782,65.6944 L64.8802,151.4224 M56.9312,69.6894 L56.0362,155.5954 M48.9812,72.8694 L48.0412,147.7754 M42.1782,76.9424 L41.4262,145.4684 M34.5722,74.7064 L34.5812,144.5864 M28.4102,77.8864 L27.8232,143.6034"/>
    <path d="M432.8372,219.482 C430.5082,214.097 434.5592,201.092 377.3652,183.068 C377.1252,194.191 381.5882,204.265 392.9372,212.804 L432.8372,219.482 Z M493.4182,157.011 C476.6352,155.741 462.5372,157.325 448.8912,159.115 L434.2922,164.77 L449.4392,221.482 C474.7722,220.676 493.9382,217.14 507.5662,212.999 L504.8122,161.95 C501.6642,159.867 503.9882,160.286 493.4182,157.011 Z M450.7862,207.272 L451.9072,214.866 L462.5892,215.204 L465.0542,217.232 C477.0472,217.179 486.5722,215.186 497.3512,212.757 L497.3622,209.507 L505.7042,208.845 L505.8312,201.063 C487.4822,204.378 471.9582,208.185 450.7862,207.272 Z M447.6972,193.684 C470.5142,194.106 486.9642,191.14 505.5692,187.988 L505.7832,196.091 L498.0012,196.388 L497.0152,200.608 C485.2002,203.231 474.6012,204.217 462.1012,204.266 L459.1182,202.163 L449.5182,201.97 L447.6972,193.684 Z M444.4332,180.199 C466.3592,181.084 483.3832,178.783 504.2882,176.148 L504.5542,183.452 L496.4762,184.18 L495.6552,187.706 C482.9532,189.86 472.2912,191.023 459.0152,190.622 L456.0942,188.467 L446.4012,188.19 L444.4332,180.199 Z M453.5782,166.701 L450.4862,165.274 L441.1972,167.206 L442.1772,173.633 L451.8682,174.367 L455.0302,177.196 C468.5932,177.672 481.8022,175.973 494.7962,174.966 L495.4472,172.105 L503.3542,171.462 L502.5332,165.174 L496.4412,163.413 L494.7962,165.335 C481.2252,165.854 467.5242,167.24 453.5782,166.701 Z M455.0922,275.712 L509.0922,290.712 L455.0922,275.712 Z M515.0922,256.962 L614.0922,275.712 L515.0922,256.962 Z M0.2172,172.212 L440.0922,319.962 L0.2172,172.212 Z M45.8742,169.557 L139.9762,189.516 L140.2872,202.029 L45.8112,178.124 L45.8742,169.557 Z M138.7042,163.647 L138.9532,201.275 L140.0702,201.428 L139.8222,163.876 L138.7042,163.647 Z M45.9372,158.307 L139.7912,171.205 L139.9152,185.955 L46.0622,168.006 L45.9372,158.307 Z M32.3922,154.431 C35.5752,154.207 38.3942,160.174 38.6872,167.758 C38.9802,175.341 36.6372,181.67 33.4542,181.894 C30.2712,182.118 27.4522,176.151 27.1592,168.567 C26.8662,160.983 29.2092,154.654 32.3922,154.431 Z M34.0462,154.431 C37.2222,154.208 40.0342,160.162 40.3272,167.729 C40.6192,175.296 38.2812,181.612 35.1052,181.835 C31.9292,182.058 29.1172,176.104 28.8242,168.537 C28.5322,160.969 30.8702,154.654 34.0462,154.431 Z M35.6982,154.431 C38.8792,154.208 41.6942,160.17 41.9872,167.747 C42.2802,175.324 39.9392,181.647 36.7582,181.871 C33.5782,182.093 30.7622,176.132 30.4692,168.555 C30.1772,160.977 32.5182,154.654 35.6982,154.431 Z M37.3542,154.431 C40.5182,154.209 43.3192,160.14 43.6102,167.679 C43.9022,175.217 41.5732,181.509 38.4092,181.731 C35.2442,181.953 32.4432,176.022 32.1512,168.483 C31.8602,160.944 34.1902,154.653 37.3542,154.431 Z M33.0752,165.547 C33.5102,165.547 33.8642,166.628 33.8642,167.962 C33.8642,169.295 33.5102,170.376 33.0752,170.376 C32.6392,170.376 32.2862,169.295 32.2862,167.962 C32.2862,166.628 32.6392,165.547 33.0752,165.547 Z M31.9522,158.376 C33.5082,158.376 34.7702,162.614 34.7702,167.842 C34.7702,173.071 33.5082,177.31 31.9522,177.31 C30.3952,177.31 29.1332,173.071 29.1332,167.842 C29.1332,162.614 30.3952,158.376 31.9522,158.376 Z M147.3372,177.168 C152.2022,176.827 156.5072,185.943 156.9552,197.532 C157.4032,209.12 153.8232,218.791 148.9592,219.131 C144.0952,219.473 139.7902,210.356 139.3422,198.767 C138.8942,187.179 142.4742,177.509 147.3372,177.168 Z M149.8652,177.168 C154.7182,176.827 159.0152,185.924 159.4622,197.488 C159.9092,209.05 156.3372,218.701 151.4832,219.042 C146.6292,219.382 142.3332,210.284 141.8862,198.721 C141.4392,187.158 145.0112,177.508 149.8652,177.168 Z M152.3892,177.168 C157.2492,176.827 161.5512,185.936 161.9992,197.514 C162.4462,209.092 158.8692,218.754 154.0092,219.095 C149.1502,219.436 144.8472,210.327 144.4002,198.75 C143.9522,187.171 147.5292,177.508 152.3892,177.168 Z M154.9192,177.168 C159.7542,176.829 164.0342,185.891 164.4792,197.411 C164.9242,208.93 161.3662,218.544 156.5312,218.882 C151.6952,219.222 147.4152,210.159 146.9702,198.639 C146.5252,187.121 150.0842,177.507 154.9192,177.168 Z M148.3812,194.154 C149.0462,194.154 149.5862,195.805 149.5862,197.842 C149.5862,199.879 149.0462,201.531 148.3812,201.531 C147.7152,201.531 147.1752,199.879 147.1752,197.842 C147.1752,195.805 147.7152,194.154 148.3812,194.154 Z M146.6652,183.196 C149.0432,183.196 150.9712,189.671 150.9712,197.661 C150.9712,205.65 149.0432,212.127 146.6652,212.127 C144.2862,212.127 142.3582,205.65 142.3582,197.661 C142.3582,189.671 144.2862,183.196 146.6652,183.196 Z M168.6892,181.559 C174.0722,181.181 178.8372,191.27 179.3322,204.092 C179.8282,216.916 175.8662,227.617 170.4842,227.995 C165.1022,228.373 160.3372,218.284 159.8412,205.461 C159.3462,192.637 163.3072,181.937 168.6892,181.559 Z M171.4852,181.559 C176.8572,181.182 181.6112,191.249 182.1062,204.044 C182.6002,216.839 178.6472,227.518 173.2762,227.895 C167.9062,228.272 163.1512,218.205 162.6572,205.409 C162.1622,192.614 166.1152,181.936 171.4852,181.559 Z M174.2792,181.559 C179.6562,181.181 184.4182,191.261 184.9122,204.073 C185.4072,216.885 181.4492,227.577 176.0722,227.955 C170.6942,228.332 165.9342,218.252 165.4392,205.44 C164.9432,192.628 168.9012,181.936 174.2792,181.559 Z M177.0782,181.559 C182.4292,181.183 187.1652,191.212 187.6582,203.959 C188.1502,216.706 184.2132,227.343 178.8622,227.719 C173.5122,228.094 168.7752,218.066 168.2832,205.319 C167.7902,192.572 171.7282,181.934 177.0782,181.559 Z M314.7432,184.922 L311.7622,187.904 L314.7432,184.922 Z M188.7882,168.526 L188.2922,175.979 L188.7882,168.526 Z M123.0692,166.28 L120.1372,165.833 L119.9392,167.82 L123.0692,175.075 L123.0692,166.28 Z M115.7642,161.808 L121.5282,175.421 L120.8322,176.913 L124.5092,187.446 L122.7202,187.346 L122.6212,188.837 L126.0002,189.036 L126.4972,195.197 L124.1112,196.489 C123.1182,197.548 129.9742,197.914 133.3532,197.284 L133.4522,195.794 L133.4522,192.712 L136.5332,189.433 L136.2352,187.247 L133.4522,187.247 L134.2482,175.719 L135.6392,175.521 L136.7322,171.546 L133.6512,171.645 L134.9432,163.696 L115.7642,161.808 Z M13.2252,158.686 L0.3282,158.662 L0.2882,161.146 L12.9212,161.17 L13.2252,158.686 Z"/>
    <path stroke-dasharray=".567 2.835" d="M480.054,158.5113 C475.309,158.3073 470.557,158.5923 465.8,159.2193 C465.426,160.2823 465.868,161.3573 466.713,162.4393 L483.658,162.0413 C484.777,161.4953 484.74,158.6603 480.054,158.5113 Z M409.112,204.1213 L417.917,205.9383 C420.109,208.4893 421.186,210.9673 421.718,213.4103 L410.625,211.0893 L409.112,204.1213 Z M392.296,199.1993 C404.395,200.6943 404.792,203.7533 405.443,205.6693 C405.998,210.8803 404.465,211.1383 399.784,210.3913 C397.159,210.0423 393.323,210.5093 392.48,204.6553 L392.296,199.1993 Z M417.117,203.1203 C409.059,196.6783 396.003,190.8893 382.099,186.4513 L387.283,195.3073 L417.117,203.1203 Z M393.039,211.2043 C390.304,201.9753 385.192,192.6863 377.686,183.6233 C379.572,195.9113 383.555,206.0433 393.039,211.2043 Z"/>
    <path d="M516.4291,202.8472 L516.7101,206.3632 L516.4291,202.8472 Z M357.7091,205.0032 C359.4751,209.6622 359.8201,213.9682 359.5841,218.1282 L357.7091,205.0032 Z M449.4921,221.5062 C419.5111,218.7702 389.2731,214.4002 357.7111,205.3812 C349.5001,189.6642 318.7361,169.7722 311.8671,197.5062 L449.4921,221.5062 Z M507.0561,177.4442 C511.3901,183.3392 514.5031,192.4232 516.3371,203.3192 L508.7431,211.8502 L507.0561,177.4442 Z M358.3211,214.5682 L361.3221,213.2552 C389.3841,217.8142 418.1971,223.8222 446.2591,224.8802 C450.0541,224.5852 452.3391,225.8002 453.3841,228.2552 C455.0241,231.0712 456.9951,232.4392 459.3841,232.0052 L502.8841,225.0682 C504.9401,224.4382 505.9531,223.0732 505.8841,220.9432 C505.9921,218.0552 507.0881,215.9562 509.0721,214.5682 L518.1651,204.6302 C520.6161,217.5682 519.8711,232.3802 518.8221,245.3192 C481.6241,264.6082 409.4251,265.8242 368.8221,258.2552 L358.3211,214.5682 Z M503.5621,228.4162 L459.8071,236.3302 C457.7821,236.6582 456.6151,237.4842 457.9961,239.7882 L460.3031,244.2332 C461.5321,245.8772 463.1371,246.4302 465.0781,246.0432 C477.3221,244.2872 488.8931,242.0832 499.8191,239.4502 C501.2741,239.0352 502.3691,238.2162 502.9471,236.8142 L505.1141,229.7142 C505.4191,228.9102 504.6551,228.0262 503.5621,228.4162 Z"/>
    <path stroke-dasharray=".567 2.835" d="M4.4105,91.5738 L4.3865,143.0408 M10.0355,90.4488 L10.0115,143.2288 M15.6605,87.2618 L15.2615,142.2908 M22.0355,84.4488 L21.8235,143.9788"/>
    <path d="M17.6332 152.1094C20.5292 151.9064 23.0922 157.3344 23.3592 164.2344 23.6262 171.1334 21.4942 176.8914 18.5982 177.0944 15.7022 177.2974 13.1392 171.8694 12.8722 164.9704 12.6062 158.0704 14.7372 152.3134 17.6332 152.1094zM19.1372 152.1094C22.0272 151.9064 24.5862 157.3234 24.8512 164.2074 25.1172 171.0924 22.9902 176.8374 20.1012 177.0404 17.2112 177.2434 14.6532 171.8264 14.3872 164.9424 14.1212 158.0574 16.2482 152.3124 19.1372 152.1094zM20.6402 152.1094C23.5342 151.9064 26.0952 157.3294 26.3622 164.2234 26.6282 171.1164 24.4982 176.8694 21.6052 177.0724 18.7122 177.2764 16.1502 171.8524 15.8832 164.9584 15.6172 158.0654 17.7472 152.3124 20.6402 152.1094zM22.1472 152.1094C25.0252 151.9074 27.5742 157.3034 27.8392 164.1614 28.1042 171.0204 25.9852 176.7434 23.1062 176.9454 20.2282 177.1484 17.6792 171.7514 17.4142 164.8934 17.1492 158.0354 19.2682 152.3114 22.1472 152.1094zM18.2542 162.2234C18.6502 162.2234 18.9712 163.2054 18.9712 164.4194 18.9712 165.6314 18.6502 166.6144 18.2542 166.6144 17.8582 166.6144 17.5362 165.6314 17.5362 164.4194 17.5362 163.2054 17.8582 162.2234 18.2542 162.2234zM17.2322 155.6984C18.6482 155.6984 19.7962 159.5544 19.7962 164.3114 19.7962 169.0674 18.6482 172.9234 17.2322 172.9234 15.8162 172.9234 14.6682 169.0674 14.6682 164.3114 14.6682 159.5544 15.8162 155.6984 17.2322 155.6984zM9.7972 150.0767L9.7972 158.6897 13.1072 158.6567 13.1092 150.4597 9.7972 150.0767zM45.7042 154.0847L45.9522 178.3617 47.0702 178.4597 46.8222 154.2317 45.7042 154.0847z"/>
  </g>
</svg>
