<?xml version="1.0" encoding="UTF-8"?> <svg xmlns="http://www.w3.org/2000/svg" width="292" height="89"><g fill="none" fill-rule="evenodd"><path fill="#3C6F9C" d="M22.007 31.296s-6.229 1.522-12.893 5.631c0 0 4.853-6.316 13.038-8.142l-.145 2.511zm8.295 4.87s-13.583.152-26.983 9.968c1.086-2.359 4.418-11.908 26.367-14.343l.616 4.375zm12.06 6.544S14.257 46.134.928 54.428c.58-2.815 1.522-6.164 1.522-6.164S18.893 37.916 41.855 37.84l.507 4.87zm6.374 35.687s-14.487 8.37-34.624 4.946c-3.115-2.283-4.998-4.337-4.998-4.337s16.624 4.356 38.826-4.49l.796 3.881zm-4.255 6.506s-10.54 7.619-26.54.913c1.957 0 17.467 1.77 26.648-3.538l-.108 2.625zm2.74-62.215c1.342.693 2.525 1.725 3.65 2.512 1.656-1.802 3.138-3.866 5.028-5.357 2.38-1.877 5.076-3.319 7.666-4.892C69.355 11.436 74.684 7.508 76.216 0c.984 7.704-.278 14.926-4.52 21.774 9.199-1.412 17.968-2.875 24.162-10.757-5.315 14.09-15.1 22.464-29.344 25.197 3.824 1.216 7.55 3.496 10.134 6.649-.02.118-.294.036-.476.016l-11.987-.83c1.48 4.334 1.254 8.792 1.478 13.216.133 2.63.656 5.24 1.036 7.853.066.453.294.881.446 1.321a10.763 10.763 0 0 1-2.348-2.252c-.674-.868-1.244-1.823-1.854-2.732-.635 2.953-1.136 5.893-1.917 8.749-.777 2.836-1.932 5.539-3.65 7.964l3.103-14.448c-1.334.068-1.127-.88-1.24-1.709-.382-2.807-.527-5.7-1.297-8.39C54.243 38.695 45.69 30.972 33.61 27.236c-4.494-1.39-9.118-1.87-13.809-1.732.311-.135.621-.22.936-.28 4.506-.866 9.049-1.146 13.572-.365 1.718.297 2.96-.094 4.332-1.134 2.62-1.984 5.558-2.599 8.581-1.038zm63.213 36.9h-10.61V38.61h10.61c7.53 0 12.352 3.956 12.352 10.488 0 6.533-4.821 10.488-12.352 10.488zm-.342-16.901h-5.705V55.51h5.705c4.793 0 8.045-2.097 8.045-6.412 0-4.315-3.252-6.412-8.045-6.412zm43.125-4.076v20.976h-4.564V44.994l-8.757 11.237h-.228l-8.758-11.237v14.593h-4.42V38.611h4.962l8.444 11.087 8.443-11.087h4.878z"></path><path fill="#68B2E8" d="M51.127 51.649c.362 0-49.293 9.55-50.017 10.996-.218-2.436-.254-5.213-.254-5.213s21.803-10.957 49.402-12.25c0 0 .506 6.467.869 6.467zM41.058 64.092S21.899 69.304 3.246 69c-.977-3.006-1.149-4.089-1.343-4.442-.044-.081 0-.183.089-.2 2.655-.536 31.844-6.413 38.342-7.647l.724 7.38zm149.819-25.48l-7.302 20.975h-4.65l-5.248-15.821-5.306 15.821h-4.593l-7.302-20.976h4.792l4.906 15.522 5.335-15.522h4.42l5.307 15.522 4.934-15.522h4.707zm13.177-.66c7.787 0 12.694 4.135 12.694 11.147 0 7.012-4.907 11.147-12.694 11.147-7.787 0-12.694-4.135-12.694-11.147 0-7.012 4.907-11.147 12.694-11.147zm0 4.135c-4.934 0-8.044 2.517-8.044 7.012 0 4.495 3.08 7.012 8.044 7.012 4.935 0 8.044-2.517 8.044-7.012 0-4.495-3.11-7.012-8.044-7.012zm34.798 17.5l-5.734-7.132h-7.216v7.132h-4.536l-1.5-20.976h13.777c6.379 0 10.058 2.367 10.058 6.922 0 3.566-2.253 5.784-5.562 6.593l6.161 7.461h-5.448zM234.887 48.5c2.396 0 4.165-.6 4.165-2.937 0-2.337-1.769-2.936-4.165-2.936h-9.014V48.5h9.014zm30.219 6.952v4.135h-18.684V38.611h4.564v16.84h14.12zm13.777 4.135H268.27V38.611h10.612c7.53 0 12.352 3.956 12.352 10.488 0 6.533-4.822 10.488-12.352 10.488zm-.342-16.9h-5.706V55.51h5.706c4.792 0 8.043-2.097 8.043-6.412 0-4.315-3.251-6.412-8.043-6.412zM55.4 67.82S35.987 80.68 6.722 76.495c-1.593-3.348-2.39-4.566-2.39-4.566s32.669-.685 50.343-9.283l.724 5.174z"></path></g></svg> 