<?xml version="1.0" encoding="UTF-8"?> <svg xmlns="http://www.w3.org/2000/svg" width="290" height="271" viewBox="0 0 290 271"><g fill="none" fill-rule="evenodd"><path fill="#3C6F9C" d="M64.3943316,95.7504486 C64.3943316,95.7504486 45.3638972,100.405842 25.006577,112.97767 C25.006577,112.97767 39.8324815,93.6545142 64.8370461,88.067035 L64.3943316,95.7504486 Z M89.7319383,110.648336 C89.7319383,110.648336 48.2400321,111.114379 7.30277672,141.146449 C10.6218777,133.929079 20.8005378,104.713214 87.8504017,97.2628215 L89.7319383,110.648336 Z M126.574839,130.67043 C126.574839,130.67043 40.7171558,141.146324 0,166.521742 C1.77085795,157.908761 4.64724442,147.664629 4.64724442,147.664629 C4.64724442,147.664629 54.8789886,116.003927 125.026596,115.770905 L126.574839,130.67043 Z M146.048366,239.85539 C146.048366,239.85539 101.792009,265.46383 40.273561,254.986677 C30.7589726,248.003587 25.0061997,241.717044 25.0061997,241.717044 C25.0061997,241.717044 75.7900793,255.044617 143.614694,227.982627 L146.048366,239.85539 Z M133.047778,259.759966 C133.047778,259.759966 100.850361,283.06968 51.9744294,262.553706 C57.9498173,262.553706 105.331587,267.966104 133.379814,251.72765 L133.047778,259.759966 Z M141.420238,69.413974 C145.51912,71.5351 149.132526,74.6915974 152.567336,77.0986472 C157.62711,71.585483 162.154872,65.2724881 167.930284,60.7090442 C175.198599,54.9653776 183.435353,50.5556021 191.348874,45.7427621 C209.036072,34.9872426 225.315892,22.9708876 229.997094,0 C233.003025,23.5704458 229.148139,45.6646684 216.187421,66.6177152 C244.288471,62.29611 271.078986,57.8208364 290,33.7049943 C273.764201,76.813983 243.869653,102.433759 200.356605,110.797344 C212.039488,114.518131 223.421778,121.492403 231.316434,131.138236 C231.253548,131.499735 230.41717,131.249079 229.861261,131.18736 C217.792261,130.351001 205.72326,129.514643 193.24173,128.649314 C197.761946,141.908871 197.073977,155.548819 197.758172,169.081704 C198.164413,177.129135 199.761707,185.112328 200.922575,193.108116 C201.123809,194.496169 201.819323,195.804868 202.285934,197.151355 C199.420867,195.137293 197.10542,192.837307 195.110689,190.261474 C193.054331,187.605029 191.311143,184.682812 189.447214,181.901669 C187.50908,190.936607 185.978445,199.932499 183.591309,208.668918 C181.219265,217.344878 177.691384,225.615254 172.43918,233.036676 C175.564593,218.468419 178.690007,203.900163 181.922325,188.833115 C177.846082,189.038426 178.477453,186.140142 178.13284,183.604615 C176.966942,175.015567 176.524227,166.164526 174.171049,157.931937 C162.871768,118.390068 136.739036,94.7604219 99.8352615,83.3322888 C86.1073392,79.0799602 71.9807223,77.6087755 57.6516139,78.0307334 C58.6011862,77.6201116 59.548243,77.360639 60.5091347,77.1754813 C74.276046,74.526593 88.1523783,73.6688217 101.972113,76.059497 C107.219286,76.9676513 111.011287,75.7723136 115.205755,72.5893651 C123.208574,66.5182087 132.184862,64.6376618 141.420238,69.413974 Z"></path><path fill="#68B2E8" d="M152.99359,157.915614 C154.096211,157.915614 2.97707504,187.321253 0.771834269,191.773426 C0.110262038,184.274963 0,175.723038 0,175.723038 C0,175.723038 66.3564465,141.983123 150.348554,138 C150.348554,138 151.89097,157.915614 152.99359,157.915614 Z M122.350767,196.229275 C122.350767,196.229275 64.0421967,212.279663 7.27478858,211.342831 C4.29896652,202.087331 3.77647482,198.753272 3.18632231,197.665583 C3.05100072,197.414578 3.18882827,197.101455 3.45571252,197.046944 C11.5361658,195.400198 100.371032,177.303737 120.14678,173.501896 L122.350767,196.229275 Z M166,207.710228 C166,207.710228 106.919595,247.308199 17.8566865,234.42073 C13.0076628,224.111769 10.5818979,220.363171 10.5818979,220.363171 C10.5818979,220.363171 110.005679,218.253713 163.796012,191.777736 L166,207.710228 Z"></path></g></svg> 