<?xml version="1.0" encoding="UTF-8"?> <svg xmlns="http://www.w3.org/2000/svg" width="615" height="321"><g fill="none" fill-rule="evenodd" stroke="#000" stroke-width=".57"><path d="M445.52 234.36a2.84 2.84 0 1 0-2.24-2.78 2.56 2.56 0 0 0 2.24 2.78zM511 222.91c.74 0 1.34-1.16 1.34-2.57s-.6-2.57-1.34-2.57c-.74 0-1.34 1.16-1.34 2.57s.62 2.57 1.34 2.57zm-184 18.62c.53 0 1-1 1-2.16 0-1.16-.42-2.17-1-2.17-.58 0-.95 1-.95 2.17s.46 2.16.95 2.16zm15.1 2.71a2.45 2.45 0 1 0-2.27-2.44 2.36 2.36 0 0 0 2.27 2.44zm-.84-16.92a2.45 2.45 0 1 1-3.13 1.15 2.37 2.37 0 0 1 3.13-1.15zm-5.26-7.64a2.92 2.92 0 0 1-.81 3.18c-.91.89-2 .92-2.49.07a3 3 0 0 1 .81-3.18c.9-.89 2.02-.93 2.49-.07zm-7-1.25a4.29 4.29 0 0 1-1.13 3c-.73.76-1.41.65-1.52-.24a4.27 4.27 0 0 1 1.13-3c.68-.76 1.36-.66 1.52.24zm12 36.85a2.45 2.45 0 1 0-3.13-1.15 2.37 2.37 0 0 0 3.13 1.15zm-8.28 2.19a2.81 2.81 0 0 0 .78 3c.87.86 1.94.89 2.39.07a2.82 2.82 0 0 0-.77-3.05c-.88-.81-1.95-.85-2.4-.02z"></path><path d="M327.57 242.58c.83 0 1.5-1.52 1.5-3.39s-.67-3.39-1.5-3.39-1.49 1.52-1.49 3.39.67 3.39 1.49 3.39z"></path><path d="M330.42 245.07c1.35 0 2.45-2.49 2.45-5.55 0-3.06-1.1-5.55-2.45-5.55s-2.44 2.5-2.44 5.55 1.1 5.55 2.44 5.55z"></path><path d="M329 247.64c2.51 0 4.55-3.65 4.55-8.12 0-4.47-2-8.11-4.55-8.11s-4.56 3.64-4.56 8.11c0 4.47 2.03 8.12 4.56 8.12z"></path><ellipse cx="324.75" cy="228.88" rx="1" ry="1.86"></ellipse><path d="M328.55 229.58c.46 0 .82-.83.82-1.86 0-1.03-.36-1.86-.82-1.86-.46 0-.81.84-.81 1.86s.36 1.86.81 1.86zm4.15 2.82c.45 0 .81-.84.81-1.86s-.36-1.87-.81-1.87c-.45 0-.82.84-.82 1.87 0 1.03.36 1.86.82 1.86zm2.56 6.87c.45 0 .82-.83.82-1.86 0-1.03-.37-1.86-.82-1.86-.45 0-.82.83-.82 1.86 0 1.03.37 1.86.82 1.86zm-.08 7.54c.45 0 .82-.84.82-1.86s-.37-1.87-.82-1.87c-.45 0-.82.84-.82 1.87 0 1.03.37 1.86.82 1.86zm-2.57 5.55c.45 0 .82-.84.82-1.87 0-1.03-.37-1.86-.82-1.86-.45 0-.82.84-.82 1.86s.37 1.87.82 1.87zm-4.22 1.16c.45 0 .82-.84.82-1.87 0-1.03-.37-1.86-.82-1.86-.45 0-.82.84-.82 1.86s.37 1.87.82 1.87zm-4.01-3.76c.39 0 .7-.72.7-1.6 0-.88-.31-1.6-.7-1.6-.39 0-.7.72-.7 1.6 0 .88.32 1.6.7 1.6zm-2.09-6.51c.42 0 .76-.78.76-1.74s-.34-1.74-.76-1.74-.77.78-.77 1.74.35 1.74.77 1.74zm.33-7.12c.42 0 .77-.79.77-1.74s-.35-1.74-.77-1.74c-.42 0-.76.78-.76 1.74s.34 1.74.76 1.74zm.19-12.9c.36.06.54.76.41 1.56-.13.8-.52 1.41-.87 1.36-.35-.05-.54-.76-.41-1.56.13-.8.52-1.42.87-1.36zm4 32.18c-.32.16-.29.88.07 1.61.36.73.92 1.2 1.24 1 .32-.2.29-.88-.07-1.61-.36-.73-.92-1.16-1.24-1z"></path><path d="M333.58 198.17c12.55-.66 23.65 16.79 24.8 39 1.15 22.21-8.07 40.68-20.61 41.33-12.54.65-23.65-16.79-24.8-39-1.15-22.21 8.03-40.68 20.61-41.33z"></path><ellipse cx="350.945" cy="238.323" transform="rotate(-2.98 350.945 238.323)" rx="22.86" ry="40.41"></ellipse><ellipse cx="345.849" cy="238.277" transform="rotate(-2.98 345.85 238.277)" rx="22.83" ry="40.35"></ellipse><ellipse cx="340.76" cy="238.362" transform="rotate(-2.98 340.76 238.362)" rx="22.88" ry="40.44"></ellipse><path d="M328.49 198c12.54-.66 23.65 16.79 24.8 39 1.15 22.21-8.07 40.68-20.62 41.33-12.55.65-23.64-16.79-24.8-39-1.16-22.21 8.13-40.71 20.62-41.33z"></path><path d="M331 214.39c7.78-.41 14.67 10.53 15.38 24.44.71 13.91-5 25.52-12.79 25.93-7.79.41-14.67-10.54-15.38-24.45-.71-13.91 5-25.51 12.79-25.92zm-14-27.83c-8.17 11-10.24 33-8.34 60.42l-3.38 2.38c-1.33 4.24-5 5.5-9.94 5l-85.66-27.82-17.49-2.39-3.23-6.8-.34-43.08 22.24 1.73 28.42 4.57 14.51 2.58 16.3-.4 32.59 5.25 2.19-2.58 12.13 1.14z"></path><path d="M247.78 183.73l1.24 10.88-.87.69 2.81 27.13-2.68 1.99 1.19 8.74-.89 1.69 1.69 6.27m-44.63-64.09l1.19 9.74-.79.95 2.93 23.4-1.99 2.98.4 7.15-.85 1 1.05 5.31m40.25-32.01l-48.49-8.74"></path><path d="M248.82 224.57l-55.45-13.91" stroke-dasharray=".57"></path><path d="M251.21 222.38l-41.34-11.13-17.09-.79M306.06 250c-32.79-8.28-65.19-18.15-98-28l-19.48-3.38M311.83 188c-9.94 19.6-11.13 40.49-6.76 62.21"></path><path d="M434.5 164.96l-38.6-13.73m48.8 67.88C425.56 156.22 331.43 156.6 285.83 153M381 184.82c-19.61-9.61-65.71-27-95.71-31.08m163.55 5.36c-14.9-12.22-58.57-29-87.69-39.62m132.72 37.44c-23.44-17.56-68-29.47-98.77-37.69" stroke-dasharray=".57"></path><path d="M435.22 121.35c24.09 8.29 56.49 28.13 69.58 40.14"></path><path d="M374.56 144.62l-48.82-11.08" stroke-dasharray=".57"></path><path d="M506.06 145c.37-1.13.38-2.75-1.69-3.18-3.43-.17-4.41-1.1-5.61-4.08-1.05-5.45.37-8.25 3-8.26l6.81-.09c3.92.31 5.4 2.15 6 4.44l.69 5.42c.13 2.34-1.57 4.37-6.07 4.46l-11 12.61-3.7-3 11.57-8.32zm-72.84-28.22l.06-15.52a2.72 2.72 0 0 1 2.53-3l5 .85a3.11 3.11 0 0 1 1.89 2.68l.2 22.41-7.73-3-1.95-4.42zm-2.89 3.7c-35.65-1.24-63-1-99-.89-5.56-.09-10.33-1.68-13.51-6.27L309.69 78c-.76-7.26 3.43-10.2 9.24-10.44 44.18 2 87.18 4 93.91 7.36 7.34 2.38 13.75 23.89 20.27 43.22l-.4 2.39-2.38-.05z"></path><path d="M417.75 103.6c-2.69-7.73-6.4-21-10.43-22l-15.7 1.69c-2.81 0-3.85 3.11-3.48 6.86l.3 18.78 29.41 1.89c1.64.18 1.34-4.54-.1-7.22z" stroke-dasharray=".57"></path><path d="M373.58 70.46l17.79 44.72-2.09-.3-18.18-44.62z"></path><path d="M430.23 120.28c-36.15-1.15-63.8-.8-100.27-.5-5.57-.08-10.34-1.67-13.51-6.26l-8.75-37.36c-.75-7.26 3.44-10.2 9.24-10.43 44.18 2 89.17 3.92 95.9 7.25 6.74 1.88 13.65 25.58 20.17 44.92l-.4 2.38h-2.38zM317.65 53.67c.86-.18 2 1.71 2.53 4.24.53 2.53.28 4.71-.57 4.9-.85.19-2-1.72-2.54-4.24-.54-2.52-.28-4.71.58-4.9zm41.28 2.91c.82-.32 2.25 1.36 3.21 3.75.96 2.39 1.07 4.6.25 4.93-.82.33-2.25-1.35-3.2-3.75-.95-2.4-1.07-4.6-.26-4.93zm9.84.42c.82-.32 2.25 1.35 3.21 3.75s1.07 4.6.25 4.93c-.82.33-2.23-1.38-3.23-3.77s-1-4.6-.23-4.91zm9.84.58c.81-.33 2.25 1.35 3.21 3.75s1.06 4.6.25 4.92c-.81.32-2.25-1.35-3.21-3.75s-1.07-4.6-.25-4.92zm29.79 4.32c.79-.31 2.17 1.31 3.1 3.62.93 2.31 1 4.45.24 4.76-.76.31-2.17-1.31-3.09-3.62-.92-2.31-1.04-4.44-.25-4.76zm-93.55 122.64l-50.63-7.4-13.42-.58-42.82-5.38-14.11-1"></path><path d="M260.15 224.94l-11.03 2.98 35.17 9.54 10.04-3.98-34.18-8.54zm38.75-22.46l-6.26 2.08-35.97-6.35 9.14-1.59 33.09 5.86z" stroke-dasharray=".57"></path><path d="M269.79 184.29l-2.89 10.84 32.1 5.56 3.58-11.13zm-4.18-116.61l26.44-4.37c6.68-1.34 10.07 2.13 12.52 10.33 7.87 21.17 8.82 51.3 6.55 76.72-7.85 13-.05 21.73-9.73 32.19l-37.57-5.16a472.55 472.55 0 0 1-2.18-61.39 356.1 356.1 0 0 1 3.97-48.32z"></path><path d="M310.23 67.68l-2.19-.6c-3.78-6.57-9.04-10.32-17.04-8.94l-81.88 15.1-12.92 1.59m76.07-.2c5.43-2.39 14.54-3.19 23.05-3.37 2.62.51 6.23 9.69 9.34 27.42 2.62 14.34 1.44 22.23-5 22.26l-17.49-1.19-.4-34c-.067-.793-.597-1.323-1.59-1.59l-10.93.4c-.05-4.39.86-7.78 3.02-9.93z"></path><path d="M302.23 125.27l-5.86.09-5.17 2.19-1 2.78c-3.9.88-8.64-3.35-13.87-8.84 2.49 0 4.67-.51 6-2.78l-.7-32.4a2.45 2.45 0 0 0-2.19-1.89l-12.12.2a3.38 3.38 0 0 0-2.78 2.49l.2 31.89a2.89 2.89 0 0 0 1.84 2.54l6.11.1c7.32 8.72 12.15 12.82 17.09 12.27v1.89l5.66 4.17 5.27-.1 1.29-.79.23-13.81zm26.33-5.27l1 1.29c-3.89 4.43-3.55 10.35-4.18 16.89-.57 6-.69 14.19-.69 14.19l-5.17 6.85c-1.52 3.91-1.06 10.6-1.59 15.9l-2.88 6.17-.2 3.67M328.07 120c-2.89 1.67-4 5.84-4.47 12.82l-10.94-1.89m-48.29 20.17l.3 14.11c.48 3.65 5 4.82 5 2.79v-14.91c-.62-2.74-4.88-3.95-5.3-1.99z"></path><path d="M265.91 153.63l-.3 10.34 1.39 2.09 1.58.03-1.92-2.52.29-9.79zm.6-.49a.55.55 0 1 0 0-1.1.55.55 0 0 0 0 1.1zm-2.29 20.24l.4 1.99 6.46.7-.7-2.09z"></path><path d="M213.44 142.88c-3.8-.41-4.52 3.41-4.07 8.84l.69 10.24c.68 3.35 2.07 5.13 4.08 5.56l15.2 1.29c2.62.49 3.75-1.71 3.18-8.15l-.7-13.51a6.44 6.44 0 0 0-3.57-3.88l-14.81-.39z" stroke-dasharray=".57"></path><path d="M216.62 79c-2.17.64-4.75 3.67-5 7l-1.59 42.33c0 4.34 1.29 6.32 3.38 6.95h10.34c3.25.47 4.89-2.12 5.76-6.16l.79-47.1c.31-3.09-1-4.6-3.57-4.77L216.62 79z"></path><path d="M219.8 88.92a6.81 6.81 0 0 0-4.27 5.26l-.7 26.34c-.25 2.21.22 3.81 1.69 4.57l4.87.1c2-.49 2.76-2 2.78-4.08l1-29.21a4.19 4.19 0 0 0-3.08-3.18l-2.29.2z" stroke-dasharray=".57"></path><path d="M226.71 5.1a19.45 19.45 0 0 0-8.55 8.74l-8.94 58c-2.4 33.13-2.11 66.25-.8 99.38"></path><path d="M236.84 27.75c1.89-5.06-5.76-6.26-9.83-2.08-5.24 6.68-7.73 15.9-9.25 26 .07 3.31 1.63 3.94 3.48 2.19l15.6-26.11zM253 55.58l33.29-5.67c13.68-2 25.34-1.19 36.88-.24l85.85 8.89"></path><path d="M265.17 30.83c-7.95-7.95-24.05-18.68-36.37-13.11-8.42 4.92-10.55 14.35-11.33 23.45" stroke-dasharray=".57"></path><path d="M274.51 1.42l35 24.84c8.41 6.5 17 10.6 25.44 12.33L377.46 43c8.19.83 10-2.35 1.19-12.13-8.81-9.78-33.59-17.68-32.4-17.68m27.23 105.99l-11.92-7.16-35.88-.89.1-1.59 35.98 1.29 14.5 8.05zm54.04.66l-9.89-5.4-24.37.46-.23-1.4 24.97-.02 13.24 6.54z"></path><path d="M435.19 121.16l-4.19-8.34A239.62 239.62 0 0 0 408.64 59l-5.05-3.63c-11.9-22.56-29.44-36.25-52.47-41.37-48.85-9.69-98.27-20-125.6-8.7l-8.35.39-19.08 6.17-3.78 158.39"></path><path d="M359.47 202.75c-.2-7.88-1.39-14.38 1.39-26.23 2.59-4.69 9.66-6.12 18.09-6.56l2.38-23.06c3.19-6.83 8.62-12.11 18.68-14.31l30.81-3.38 26.11 1.61" stroke-dasharray=".57"></path><path d="M342.18 192l1.82-23c2.36-4.53 7.5-6.79 15.7-6.56l2.58-20.07c2.37-7.6 8.3-12.78 19.48-14.31l23.34-4 41.73 2" stroke-dasharray=".57"></path><path d="M327.87 186.45l1.79-23c2.36-4.54 4.32-6.6 12.52-6.36l1.39-19.28c-.25-9.51 9.78-15.87 23.85-15.3l33.39-1.59 38.86 1.82M372 207.32c-1-8.48-1.39-17.36.8-25.24 1-6.87 15.22-5.72 33.38 0l-1.19-28c2.28-5.29 3.2-11 14.11-15.11l30.81-3.38 20.09 1.77" stroke-dasharray=".57"></path><path d="M410.93 170.12c-3.2.4-6.3-1-9.24-5.07-.61-7.86-14.67-12.72-21.62-18.23-3.63 0-6.34-1.83-7.85-5.77-1.35-5.63-.9-9 2-9.34 10.73.41 15.31 1.25 15.3 5.32.46 5.05.08 9.21-4 9.39l22.67 11.18c2.07.39 3.8 1.79 5.07 4.57 1.02 3.91.06 6.43-2.33 7.95z"></path><path d="M249.26 180.99l-3.87-3.38-4.97-.8-.1 1.59 2.29 1.59-1.79 3.48-.9-2.09-2.78.2 1.39 14.91 5.87 1.19.39-2.68 1.4-.4-.7-11.23 3.58-.1.19-2.28z" stroke-dasharray=".57"></path><path d="M297.61 48.57C287.41 31.74 279 9 238.19 1.67"></path><path d="M317.69 48.77c-7.5-12.45-24.84-40.18-60-48.49m137.9 56.44c-6.2-16.33-14.5-35.81-49.68-44.12m15.7 40.74a153.22 153.22 0 0 0-8.87-13c-.46-.62-2.62-1.83-3.1-2.45-9.77-12.57-23.72-27.22-47.46-32.82" stroke-dasharray=".57"></path><path d="M403.54 55.33c-34.187-4.56-68.9-8.07-104.14-10.53L289.26 46" stroke-dasharray=".57"></path><path d="M167.94 220.24c2.63 0 4.77-7.19 4.77-16 0-8.81-2.14-16-4.77-16-2.63 0-4.76 7.19-4.76 16 0 8.81 2.14 16 4.76 16z"></path><path d="M169.84 208.52c.74 0 1.34-1.84 1.34-4.08s-.6-4.08-1.34-4.08c-.74 0-1.33 1.83-1.33 4.08s.6 4.08 1.33 4.08zm85.93-142.66a970.36 970.36 0 0 0-2.77 111.7M198.93 12.6l-7.15-.8L189 168.81h4.77z"></path><path d="M197.34 11.8l-23.45-1.59L1.49 90.69l.2 58.45 167.83 17.68 19.48-.79z"></path><path d="M28.41 77.89l-.59 65.71m6.75-68.89l.01 69.88m7.6-67.65l-.75 68.53m7.55-72.6l-.94 74.91m8.89-78.09l-.89 85.91m9.24-89.91l-.4 85.73m10.53-93.41l-.79 99.27M86.74 52.65l-1.19 105.93m13.51-111.7l-.69 113.19m15.5-120.64l-1.19 122.53m17.19-129.39l-.7 129.29m19.78-137.83l-1.09 140.41m23.45-11.13L3.76 143.46M169.22 16.87l-1.09 140.41m13.11-144.84l-1.58 152.52m-10.04-145.7L4.17 92.35m163.46 67.22L4.15 146.68" stroke-dasharray=".57"></path><path d="M13.22 158.69l-12.89-.03-.04 2.49 12.63.02zm102.54 3.12l5.77 13.61-.7 1.49 3.68 10.54-1.79-.1-.1 1.49 3.38.2.5 6.16-2.39 1.29c-1 1.06 5.86 1.42 9.24.79l.1-1.49v-3.08l3.08-3.28-.29-2.18h-2.79l.8-11.53 1.39-.2 1.09-4-3.08.1 1.29-8-19.18-1.81z"></path><path d="M123.07 166.28l-2.93-.45-.2 1.99 3.13 7.25zm65.72 2.25l-.5 7.45m126.45 8.94l-2.98 2.98m-134.68-6.34c5.35-.38 10.09 9.65 10.58 22.4.49 12.75-3.45 23.38-8.8 23.76-5.35.38-10.08-9.65-10.58-22.4-.5-12.75 3.45-23.39 8.8-23.76z"></path><path d="M174.28 181.56c5.38-.38 10.14 9.7 10.63 22.51.49 12.81-3.46 23.51-8.84 23.88-5.38.37-10.14-9.7-10.63-22.51-.49-12.81 3.46-23.5 8.84-23.88z"></path><path d="M171.49 181.56c5.37-.38 10.12 9.69 10.62 22.48.5 12.79-3.46 23.48-8.83 23.85-5.37.37-10.13-9.69-10.62-22.48-.49-12.79 3.46-23.47 8.83-23.85z"></path><path d="M168.69 181.56c5.38-.38 10.15 9.71 10.64 22.53.49 12.82-3.46 23.53-8.85 23.9-5.39.37-10.14-9.71-10.64-22.53s3.47-23.52 8.85-23.9zm-22.03 30.57c2.38 0 4.31-6.5 4.31-14.47 0-7.97-1.93-14.47-4.31-14.47s-4.3 6.5-4.3 14.47c0 7.97 1.93 14.47 4.3 14.47z"></path><path d="M148.38 201.53c.66 0 1.21-1.66 1.21-3.69 0-2.03-.55-3.69-1.21-3.69-.66 0-1.2 1.66-1.2 3.69 0 2.03.54 3.69 1.2 3.69z"></path><path d="M154.92 177.17c4.83-.34 9.11 8.72 9.56 20.24.45 11.52-3.11 21.13-7.95 21.47-4.84.34-9.11-8.72-9.56-20.24-.45-11.52 3.11-21.13 7.95-21.47z"></path><path d="M152.39 177.17c4.86-.34 9.16 8.77 9.61 20.34.45 11.57-3.13 21.24-8 21.59-4.87.35-9.16-8.77-9.61-20.35-.45-11.58 3.14-21.24 8-21.58z"></path><path d="M149.86 177.17c4.86-.34 9.16 8.75 9.6 20.32.44 11.57-3.12 21.21-8 21.55-4.88.34-9.15-8.76-9.59-20.32-.44-11.56 3.13-21.21 7.99-21.55z"></path><path d="M147.34 177.17c4.86-.34 9.17 8.77 9.62 20.36.45 11.59-3.14 21.26-8 21.6-4.86.34-9.17-8.77-9.62-20.36-.45-11.59 3.13-21.26 8-21.6zM32 177.31c1.55 0 2.82-4.25 2.82-9.47 0-5.22-1.27-9.46-2.82-9.46-1.55 0-2.82 4.25-2.82 9.46 0 5.21 1.22 9.47 2.82 9.47z"></path><path d="M33.08 170.37c.43 0 .78-1.08.78-2.41s-.35-2.41-.78-2.41c-.43 0-.79 1.08-.79 2.41s.35 2.41.79 2.41z"></path><path d="M37.35 154.43c3.17-.22 6 5.71 6.26 13.25.26 7.54-2 13.83-5.2 14-3.2.17-6-5.71-6.26-13.25-.26-7.54 2.04-13.78 5.2-14z"></path><path d="M35.7 154.43c3.18-.22 6 5.74 6.29 13.32.29 7.58-2.05 13.9-5.23 14.12-3.18.22-6-5.74-6.29-13.32-.29-7.58 2.05-13.9 5.23-14.12z"></path><path d="M34.05 154.43c3.17-.22 6 5.73 6.28 13.3.28 7.57-2 13.88-5.22 14.1-3.22.22-6-5.73-6.29-13.29-.29-7.56 2.05-13.89 5.23-14.11z"></path><path d="M32.39 154.43c3.19-.22 6 5.74 6.3 13.33.3 7.59-2 13.91-5.24 14.13-3.24.22-6-5.74-6.29-13.32-.29-7.58 2.05-13.92 5.23-14.14zm13.55 3.88l93.85 12.89.12 14.75-93.85-17.94z"></path><path d="M138.7 163.65l.25 37.63 1.12.15-.25-37.55z"></path><path d="M45.87 169.56l94.11 19.96.31 12.51-94.48-23.91zM.22 172.21l439.87 147.75m75-63l99 18.75m-159 0l54 15M453.58 166.7l-3.09-1.43-9.29 1.93 1 6.43 9.69.74 3.11 2.83c13.56.47 26.77-1.23 39.77-2.23l.65-2.87 7.9-.64-.82-6.29-6.09-1.76-1.64 1.92c-13.55.52-27.25 1.91-41.19 1.37zm-9.15 13.5c21.93.88 38.95-1.42 59.86-4l.26 7.3-8.07.73-.82 3.53c-12.66 2.1-23.37 3.24-36.66 2.86l-2.92-2.15-9.69-.28-1.96-7.99zm3.27 13.48c22.81.43 39.26-2.54 57.87-5.69l.21 8.1-7.78.3-1 4.22a156.76 156.76 0 0 1-34.91 3.66l-3-2.11-9.6-.19-1.79-8.29zm3.09 13.59l1.12 7.6 10.68.33 2.46 2c12 0 21.52-2 32.3-4.47v-3.25l8.34-.67.13-7.78c-18.34 3.35-33.82 7.15-55.03 6.24z"></path><path d="M493.42 157c-16.78-1.27-30.88.31-44.53 2.1l-14.6 5.66 15.15 56.71c25.33-.8 44.5-4.34 58.13-8.48L504.81 162c-3.15-2.13-.81-1.71-11.39-5zm-60.58 62.48c-2.33-5.38 1.72-18.39-55.47-36.41-.24 11.12 4.22 21.2 15.57 29.73l39.9 6.68z"></path><path d="M393 211.2c-2.74-9.23-7.85-18.51-15.35-27.58 1.92 12.29 5.9 22.38 15.35 27.58zm24.12-8.08c-8.06-6.44-21.12-12.23-35-16.67l5.18 8.86 29.82 7.81zm-24.82-3.92c12.1 1.49 12.49 4.55 13.14 6.47.56 5.21-1 5.47-5.66 4.72-2.62-.35-6.46.12-7.3-5.74l-.18-5.45zm16.81 4.92l8.81 1.82a16.55 16.55 0 0 1 3.8 7.47l-11.09-2.32-1.52-6.97zm70.94-45.61a82.11 82.11 0 0 0-14.25.71 3.42 3.42 0 0 0 .91 3.22l17-.4c1.07-.54 1.03-3.38-3.66-3.53z" stroke-dasharray=".57"></path><path d="M503.56 228.42l-43.75 7.91c-2 .33-3.19 1.15-1.81 3.46l2.3 4.44a4.44 4.44 0 0 0 4.78 1.81c12.24-1.747 23.82-3.943 34.74-6.59a4.49 4.49 0 0 0 3.13-2.64l2.16-7.1c.31-.8-.46-1.71-1.55-1.29z"></path><path d="M358.32 214.57l3-1.31c28.06 4.55 56.88 10.56 84.94 11.62 3.79-.29 6.08.92 7.12 3.38 1.64 2.81 3.62 4.18 6 3.75l43.5-6.94a3.82 3.82 0 0 0 3-4.13 7.64 7.64 0 0 1 3.19-6.37l9.1-9.94c2.45 12.94 1.7 27.75.65 40.69-37.2 19.29-109.39 20.5-150 12.94l-10.5-43.69z"></path><path d="M507.06 177.44c4.33 5.9 7.44 15 9.28 25.88l-7.6 8.53-1.68-34.41zm-57.57 44.07c-30-2.74-60.22-7.11-91.78-16.13-8.21-15.72-39-35.61-45.84-7.87m45.84 7.49a31 31 0 0 1 1.87 13.13m156.85-15.28l.28 3.51"></path><path d="M22.04 84.45l-.22 59.53m-6.16-56.72l-.4 55.03m-5.22-51.84l-.03 52.78m-5.6-51.66l-.02 51.47" stroke-dasharray=".57"></path><path d="M17.23 172.92c1.41 0 2.57-3.87 2.57-8.61 0-4.74-1.16-8.61-2.57-8.61s-2.56 3.87-2.56 8.61c0 4.74 1.15 8.61 2.56 8.61z"></path><path d="M18.25 166.61c.4 0 .72-1 .72-2.19s-.32-2.2-.72-2.2c-.4 0-.71 1-.71 2.2 0 1.2.32 2.19.71 2.19z"></path><path d="M22.15 152.11c2.88-.2 5.42 5.19 5.69 12 .27 6.81-1.84 12.63-4.73 12.89-2.89.26-5.43-5.2-5.7-12.06-.27-6.86 1.86-12.63 4.74-12.83z"></path><path d="M20.64 152.11c2.89-.2 5.46 5.22 5.72 12.11.26 6.89-1.86 12.65-4.75 12.85-2.89.2-5.46-5.22-5.73-12.11-.27-6.89 1.87-12.65 4.76-12.85z"></path><path d="M19.14 152.11c2.89-.2 5.45 5.21 5.71 12.1.26 6.89-1.85 12.63-4.75 12.79-2.9.16-5.45-5.21-5.71-12.1-.26-6.89 1.86-12.59 4.75-12.79z"></path><path d="M17.63 152.11c2.9-.2 5.46 5.22 5.73 12.12.27 6.9-1.87 12.66-4.76 12.86-2.89.2-5.46-5.22-5.73-12.12-.27-6.9 1.87-12.66 4.76-12.86zm28.07 1.97l.25 24.28 1.12.1-.25-24.23zm-35.9-4v8.61l3.31-.03v-8.2z"></path></g></svg> 